<?xml version="1.0" encoding="UTF-8"?>
<svg xmlns="http://www.w3.org/2000/svg" xmlns:xlink="http://www.w3.org/1999/xlink" viewBox="0 0 91.84 69.54">
  <defs>
    <style>
      .cls-1 {
        fill: #080e21;
      }

      .cls-2 {
        fill: url(#radial-gradient-7);
      }

      .cls-3 {
        fill: url(#radial-gradient-6);
      }

      .cls-4 {
        fill: url(#radial-gradient-5);
      }

      .cls-5 {
        fill: url(#radial-gradient-4);
      }

      .cls-6 {
        fill: url(#radial-gradient-9);
      }

      .cls-7 {
        fill: url(#radial-gradient-8);
      }

      .cls-8 {
        fill: url(#radial-gradient-3);
      }

      .cls-9 {
        fill: url(#radial-gradient-2);
      }

      .cls-10 {
        fill: url(#linear-gradient-4);
      }

      .cls-11 {
        fill: url(#linear-gradient-10);
      }

      .cls-11, .cls-12, .cls-13, .cls-14, .cls-15, .cls-16, .cls-17, .cls-18, .cls-19, .cls-20, .cls-21, .cls-22, .cls-23, .cls-24, .cls-25, .cls-26, .cls-27, .cls-28 {
        mix-blend-mode: overlay;
      }

      .cls-11, .cls-29, .cls-27, .cls-28 {
        opacity: .42;
      }

      .cls-12 {
        fill: url(#linear-gradient-11);
      }

      .cls-12, .cls-24, .cls-25, .cls-26 {
        opacity: .24;
      }

      .cls-13, .cls-14, .cls-30, .cls-31 {
        fill: #fff;
      }

      .cls-13, .cls-30 {
        opacity: .52;
      }

      .cls-32 {
        fill: url(#radial-gradient);
      }

      .cls-33 {
        fill: #ebffd9;
      }

      .cls-34 {
        opacity: .25;
      }

      .cls-34, .cls-35, .cls-36, .cls-29, .cls-37 {
        mix-blend-mode: multiply;
      }

      .cls-34, .cls-17 {
        fill: #30261d;
      }

      .cls-38 {
        fill: #331905;
      }

      .cls-39 {
        isolation: isolate;
      }

      .cls-15 {
        fill: url(#linear-gradient);
      }

      .cls-16 {
        fill: url(#linear-gradient-3);
      }

      .cls-35 {
        fill: url(#linear-gradient-2);
      }

      .cls-35, .cls-37 {
        opacity: .19;
      }

      .cls-40 {
        fill: url(#radial-gradient-16);
      }

      .cls-41 {
        fill: url(#radial-gradient-12);
      }

      .cls-42 {
        fill: url(#radial-gradient-14);
      }

      .cls-43 {
        fill: url(#radial-gradient-13);
      }

      .cls-44 {
        fill: url(#radial-gradient-10);
      }

      .cls-45 {
        fill: url(#radial-gradient-11);
      }

      .cls-46 {
        fill: url(#radial-gradient-15);
      }

      .cls-17 {
        opacity: .46;
      }

      .cls-18 {
        fill: url(#linear-gradient-12);
      }

      .cls-19 {
        fill: url(#linear-gradient-19);
      }

      .cls-20 {
        fill: url(#linear-gradient-14);
      }

      .cls-21 {
        fill: url(#linear-gradient-15);
      }

      .cls-22 {
        fill: url(#linear-gradient-17);
      }

      .cls-47 {
        fill: url(#linear-gradient-18);
      }

      .cls-48 {
        fill: #0d0533;
      }

      .cls-49 {
        fill: #ffdfc4;
      }

      .cls-50 {
        fill: #c7441c;
      }

      .cls-36 {
        fill: #3f1a10;
        opacity: .26;
      }

      .cls-29 {
        fill: url(#linear-gradient-16);
      }

      .cls-37 {
        fill: url(#linear-gradient-13);
      }

      .cls-51 {
        fill: #0b0821;
      }

      .cls-24 {
        fill: url(#linear-gradient-6);
      }

      .cls-25 {
        fill: url(#linear-gradient-7);
      }

      .cls-26 {
        fill: url(#linear-gradient-8);
      }

      .cls-27 {
        fill: url(#linear-gradient-5);
      }

      .cls-28 {
        fill: url(#linear-gradient-9);
      }
    </style>
    <radialGradient id="radial-gradient" cx="2181.48" cy="127.87" fx="2181.48" fy="127.87" r="47.31" gradientTransform="translate(-2180.28 67.64) rotate(-5.04)" gradientUnits="userSpaceOnUse">
      <stop offset=".24" stop-color="#441c72"/>
      <stop offset="1" stop-color="#040146"/>
    </radialGradient>
    <linearGradient id="linear-gradient" x1="2234.59" y1="83.75" x2="2230.15" y2="79.33" gradientTransform="translate(-2215.5 18.79) rotate(-2.39)" gradientUnits="userSpaceOnUse">
      <stop offset="0" stop-color="#fff"/>
      <stop offset="1" stop-color="#f7f7f7" stop-opacity="0"/>
    </linearGradient>
    <linearGradient id="linear-gradient-2" x1="17.45" y1="-229.03" x2="16.76" y2="51.97" gradientUnits="userSpaceOnUse">
      <stop offset="0" stop-color="#000012"/>
      <stop offset=".21" stop-color="#241d54"/>
      <stop offset=".27" stop-color="#211b4f"/>
      <stop offset=".33" stop-color="#1b1543"/>
      <stop offset=".39" stop-color="#100c2f"/>
      <stop offset=".45" stop-color="#000013"/>
      <stop offset=".46" stop-color="#000012"/>
      <stop offset=".78" stop-color="#241d54"/>
      <stop offset=".84" stop-color="#211b4f"/>
      <stop offset=".89" stop-color="#1b1543"/>
      <stop offset=".94" stop-color="#100c2f"/>
      <stop offset="1" stop-color="#000013"/>
      <stop offset="1" stop-color="#000012"/>
    </linearGradient>
    <linearGradient id="linear-gradient-3" x1="2228.26" y1="89.9" x2="2220.16" y2="81.83" xlink:href="#linear-gradient"/>
    <radialGradient id="radial-gradient-2" cx="2217.21" cy="135.27" fx="2217.21" fy="135.27" r="25.51" xlink:href="#radial-gradient"/>
    <radialGradient id="radial-gradient-3" cx="2217.45" cy="135.16" fx="2217.45" fy="135.16" r="24.32" xlink:href="#radial-gradient"/>
    <linearGradient id="linear-gradient-4" x1="2291.19" y1="103.19" x2="2289.89" y2="73.79" gradientTransform="translate(-2254.52 -107.76) rotate(1.78)" gradientUnits="userSpaceOnUse">
      <stop offset="0" stop-color="#ba3cc7"/>
      <stop offset="1" stop-color="#3d186b"/>
    </linearGradient>
    <linearGradient id="linear-gradient-5" x1="2269.81" y1="72.85" x2="2270.93" y2="92.21" gradientTransform="translate(-2238.74 -53.83)" gradientUnits="userSpaceOnUse">
      <stop offset="0" stop-color="#fff"/>
      <stop offset=".12" stop-color="#fff" stop-opacity=".91"/>
      <stop offset=".38" stop-color="#fff" stop-opacity=".66"/>
      <stop offset=".75" stop-color="#fff" stop-opacity=".28"/>
      <stop offset="1" stop-color="#fff" stop-opacity="0"/>
    </linearGradient>
    <linearGradient id="linear-gradient-6" x1="15.21" y1="-229.03" x2="14.52" y2="51.97" xlink:href="#linear-gradient-2"/>
    <linearGradient id="linear-gradient-7" x1="12.11" y1="-229.04" x2="11.42" y2="51.96" xlink:href="#linear-gradient-2"/>
    <linearGradient id="linear-gradient-8" x1="50.16" y1="-228.95" x2="49.47" y2="52.05" xlink:href="#linear-gradient-2"/>
    <linearGradient id="linear-gradient-9" x1="2286.73" y1="78.18" x2="2288.54" y2="102.91" xlink:href="#linear-gradient-5"/>
    <linearGradient id="linear-gradient-10" x1="675.2" y1="78.18" x2="677.01" y2="102.91" gradientTransform="translate(691.23 -53.83) rotate(-180) scale(1 -1)" xlink:href="#linear-gradient-5"/>
    <linearGradient id="linear-gradient-11" x1="53.26" y1="-228.94" x2="52.56" y2="52.06" xlink:href="#linear-gradient-2"/>
    <radialGradient id="radial-gradient-4" cx="2276.91" cy="78.92" fx="2276.91" fy="78.92" r="7.47" gradientTransform="translate(-2254.52 -107.76) rotate(1.78)" gradientUnits="userSpaceOnUse">
      <stop offset="0" stop-color="#ffee05"/>
      <stop offset="1" stop-color="#ff902e"/>
    </radialGradient>
    <radialGradient id="radial-gradient-5" cx="2302.53" cy="77.61" fx="2302.53" fy="77.61" r="7.52" xlink:href="#radial-gradient-4"/>
    <radialGradient id="radial-gradient-6" cx="2290.29" cy="82.25" fx="2290.29" fy="82.25" r="4.34" xlink:href="#radial-gradient-4"/>
    <radialGradient id="radial-gradient-7" cx="2290.64" cy="90.13" fx="2290.64" fy="90.13" r="9.53" xlink:href="#radial-gradient-4"/>
    <radialGradient id="radial-gradient-8" cx="1501.9" cy="335.29" fx="1501.9" fy="335.29" r="28.84" gradientTransform="translate(1506.33 -569.69) rotate(169.82) scale(1 -1)" xlink:href="#radial-gradient"/>
    <linearGradient id="linear-gradient-12" x1="1558.96" y1="319.78" x2="1556.25" y2="317.08" gradientTransform="translate(1527.5 -626.07) rotate(167.16) scale(1 -1)" xlink:href="#linear-gradient"/>
    <linearGradient id="linear-gradient-13" x1="81.48" y1="-230.8" x2="80.79" y2="50.2" xlink:href="#linear-gradient-2"/>
    <linearGradient id="linear-gradient-14" x1="1555.1" y1="323.53" x2="1550.16" y2="318.61" gradientTransform="translate(1527.5 -626.07) rotate(167.16) scale(1 -1)" xlink:href="#linear-gradient"/>
    <radialGradient id="radial-gradient-9" cx="1530.66" cy="337.38" fx="1530.66" fy="337.38" r="6.41" gradientTransform="translate(1506.33 -569.69) rotate(169.82) scale(1 -1)" xlink:href="#radial-gradient"/>
    <linearGradient id="linear-gradient-15" x1="2511.74" y1="-959.54" x2="2510.71" y2="-960.57" gradientTransform="translate(833.3 -2539.82) rotate(85.82) scale(1 -1)" xlink:href="#linear-gradient"/>
    <linearGradient id="linear-gradient-16" x1="61.11" y1="-230.85" x2="60.42" y2="50.14" xlink:href="#linear-gradient-2"/>
    <linearGradient id="linear-gradient-17" x1="2510.27" y1="-958.11" x2="2508.38" y2="-959.99" gradientTransform="translate(833.3 -2539.82) rotate(85.82) scale(1 -1)" xlink:href="#linear-gradient"/>
    <radialGradient id="radial-gradient-10" cx="1371.71" cy="385.22" fx="1371.71" fy="385.22" r="3.08" gradientTransform="translate(1427.33 -362.93) rotate(179.33) scale(1 -1)" xlink:href="#radial-gradient"/>
    <radialGradient id="radial-gradient-11" cx="1276.52" cy="185.04" fx="1276.52" fy="185.04" r="4.68" gradientTransform="translate(1356.83 3.39) rotate(-173.24) scale(1 -1)" xlink:href="#radial-gradient"/>
    <linearGradient id="linear-gradient-18" x1="1265.55" y1="214.9" x2="1269.12" y2="194.66" gradientTransform="translate(1356.83 3.39) rotate(-173.24) scale(1 -1)" xlink:href="#linear-gradient-4"/>
    <linearGradient id="linear-gradient-19" x1="1358.78" y1="382.7" x2="1358.22" y2="400.79" gradientTransform="translate(1427.33 -362.93) rotate(179.33) scale(1 -1)" gradientUnits="userSpaceOnUse">
      <stop offset="0" stop-color="#ffe0a3"/>
      <stop offset="1" stop-color="#f7f7f7" stop-opacity="0"/>
    </linearGradient>
    <radialGradient id="radial-gradient-12" cx="1358.21" cy="383.76" fx="1358.21" fy="383.76" r="3.64" gradientTransform="translate(1427.33 -362.93) rotate(179.33) scale(1 -1)" xlink:href="#radial-gradient"/>
    <radialGradient id="radial-gradient-13" cx="1260.65" cy="197.2" fx="1260.65" fy="197.2" r="4.59" gradientTransform="translate(1356.83 3.39) rotate(-173.24) scale(1 -1)" xlink:href="#radial-gradient-4"/>
    <radialGradient id="radial-gradient-14" cx="1276.18" cy="199.35" fx="1276.18" fy="199.35" r="4.53" gradientTransform="translate(1356.83 3.39) rotate(-173.24) scale(1 -1)" xlink:href="#radial-gradient-4"/>
    <radialGradient id="radial-gradient-15" cx="1268.17" cy="200.55" fx="1268.17" fy="200.55" r="2.8" gradientTransform="translate(1356.83 3.39) rotate(-173.24) scale(1 -1)" xlink:href="#radial-gradient-4"/>
    <radialGradient id="radial-gradient-16" cx="1267.9" cy="205.42" fx="1267.9" fy="205.42" r="5.84" gradientTransform="translate(1356.83 3.39) rotate(-173.24) scale(1 -1)" xlink:href="#radial-gradient-4"/>
  </defs>
  <g class="cls-39">
    <g id="Layer_2" data-name="Layer 2">
      <g id="Layer_1-2" data-name="Layer 1">
        <g>
          <g>
            <g>
              <g>
                <path class="cls-32" d="M14.29,24.63c-1.91,0-3.68-.75-4.12-1.76-.2-.45-.11-.91.24-1.29.92-.98,1.31-2.37,1.46-3.09-.54.14-1.15.22-1.78.22-1.42,0-3.1-.41-3.45-1.3-.11-.29-.14-.75.42-1.26,1.21-1.14,1.64-2.31,1.77-2.76-.51-.38-1.89-1.62-2.84-4.28-1.06-3.07-1.13-4.07-1.13-4.17,0-.11.05-.23.14-.29.07-.04,1.65-1.09,5.49-1.32.29-.02.56-.02.81-.02,2.16,0,3.31.54,3.86.93.16-.44.49-1.1,1.1-1.74.33-.35.58-.75.81-1.1.36-.57.67-1.07,1.19-1.07.12,0,.24.03.35.08,3.17.99,3.72,4.41,3.81,5.33.56-.17,1.13-.25,1.7-.25,2.09,0,3.85,1.21,4.51,2.41.26.46.33.89.21,1.24-.08.25-.27.45-.52.56-1.44.66-2.07,2.03-2.94,3.93l-.08.18c-.62,1.3-1.82,1.62-2.65,1.68,1.27.96,3.33,2.67,5.25,4.26.13.12.25.21.36.31l.19.15c1.28,1.1,2.24,1.91,2.24,1.91.12.1.15.28.06.42-.11.17-1.1,1.62-2.19,1.62-.28,0-.69-.1-1.05-.58-.15-.2-.31-.39-.47-.57-.19-.22-.39-.45-.56-.69,0,0-.05-.08-.06-.08-1.79-2.5-3.87-3.99-4.71-4.53-.27,1.29-1.27,4.83-4.39,6.28-.93.43-1.98.66-3.04.66Z"/>
                <path class="cls-51" d="M18.25.63c.07,0,.14.02.22.05,3.52,1.1,3.65,5.28,3.65,5.28l-.53.42c.89-.42,1.74-.59,2.52-.59,2.07,0,3.66,1.21,4.23,2.24.33.6.31,1.15-.16,1.36-1.6.73-2.26,2.26-3.18,4.27-.61,1.28-1.86,1.51-2.66,1.51-.23,0-.42-.02-.56-.04-.12,0-.19-.02-.19-.02.94.58,3.86,3,6.1,4.87.18.17.37.31.55.46,1.28,1.09,2.24,1.91,2.24,1.91,0,0-.98,1.48-1.93,1.48-.28,0-.55-.13-.8-.45-.33-.44-.71-.81-1.02-1.25-.03-.04-.06-.1-.09-.14-2.33-3.24-5.16-4.8-5.16-4.8,0,0-.64,4.81-4.29,6.51-.96.45-1.97.63-2.9.63-2.61,0-4.66-1.43-3.65-2.52,1.38-1.47,1.62-3.76,1.62-3.76-.66.25-1.43.36-2.18.36-2.11,0-4.04-.88-2.82-2.02,1.64-1.54,1.92-3.13,1.92-3.13,0,0-1.77-1.07-2.9-4.25-1.04-3-1.11-3.99-1.11-4.07h0s1.53-1.05,5.33-1.28c.28-.02.54-.02.79-.02,3.15,0,4.02,1.18,4.02,1.18,0,0,.21-1.08,1.16-2.08.86-.9,1.18-2.08,1.77-2.08M18.25,0c-.69,0-1.06.59-1.46,1.22-.21.34-.46.73-.77,1.06-.49.51-.81,1.05-1.01,1.49-.67-.38-1.83-.78-3.72-.78-.26,0-.54,0-.83.02-3.93.24-5.58,1.33-5.65,1.37-.18.12-.29.33-.28.55,0,.19.1,1.23,1.15,4.27.88,2.47,2.14,3.76,2.77,4.29-.17.5-.61,1.47-1.62,2.42-.72.67-.62,1.29-.5,1.61.41,1.04,2.18,1.5,3.75,1.5.47,0,.93-.04,1.36-.12-.19.72-.57,1.72-1.26,2.46-.44.48-.55,1.07-.3,1.64.49,1.13,2.35,1.95,4.41,1.95,1.1,0,2.2-.24,3.17-.69,2.93-1.36,4.06-4.48,4.46-6.05.96.67,2.71,2.05,4.21,4.14.05.08.07.11.1.15.18.25.38.48.57.7.16.18.31.36.46.55.44.59.95.71,1.3.71,1.22,0,2.26-1.47,2.45-1.76.18-.27.13-.62-.12-.83,0,0-.96-.81-2.24-1.91l-.19-.16c-.11-.09-.22-.18-.34-.29-1.66-1.39-3.43-2.84-4.7-3.84.98-.25,1.73-.84,2.15-1.74l.09-.19c.84-1.84,1.44-3.17,2.78-3.78.33-.15.58-.41.69-.75.15-.44.07-.95-.23-1.49-.68-1.23-2.46-2.57-4.78-2.57-.47,0-.95.06-1.42.17-.19-1.3-.95-4.26-4-5.23-.15-.06-.3-.09-.44-.09h0Z"/>
              </g>
              <path class="cls-15" d="M13.15,6.14s1.1,1.96,2.47,3.91c1.37,1.96,2.08,2.7,2.08,2.7,0,0,.25-2.91.44-3.63s-1.05-4.21-1.05-4.21c0,0,1.61.96,1.8,2.37,0,0,.82-2.24.62-3.75-.2-1.51-1.27-2.48-1.27-2.48,0,0-.53.57-.89,1.33s-1.3,1.19-1.48,1.69-.05,1.05-.05,1.05"/>
              <path class="cls-1" d="M28.24,20.44c-.45.57-1.01,1.19-1.5,1.68-4.18-4.84-6.18-5.49-6.47-5.55-.59-.12-1.43.78-1.56.88-.12.09-.33,1.51-.83,2.08-.44.49-1.29,1.12-1.51,1.28.25-.23,1.26-1.16,1.47-1.74.25-.67.14-1.51.07-1.61-.07-.11-.78.48-1.44.83-.6.32-1.15,1.02-1.24,1.17.06-.16.25-1.15,1.45-1.85,1.31-.77,1.82-.81,2.17-1.07.36-.24.83-.69.83-.69,0,0-1.63-1.83-1.77-1.75-.13.07-1.45.82-2.65.99-1.2.19-1.4.31-1.4.31,0,0-.56,1.45-2.18,1.95-1.63.52-2.33.15-2.33.15,0,0,1.37-.08,2.24-.61.85-.53,1.3-1.38,1.3-1.38,0,0-2.53-.15-4.31.12,0,0,2.79-.6,4.59-.63,1.8-.03,4.28-1.45,4.28-1.45,0,0-1.62-2.3-4.01-3.12-2.27-.77-5.32-.66-5.61-.65.31-.07,2.97-.63,5.32-.18,0,0-3.38-3.33-6.77-4.62,0,0,5.48,2.56,8.43,5.56l-2.16-4.65c.08.19.8,1.85,2.21,3.79,1.45,1.97,2.84,3.47,3.01,3.58-.05-.1-.07-1.12.34-3.16.43-2.11-.35-4.29-.42-4.5.13.11,1.17,1.1,1,2.53,0,0,1.14-2.68.94-5.23,0,0,.87,1.02-.25,4.41-1.12,3.39-1.25,5.87-1.02,6.32.24.46,1.89,1.37,1.95,1.37.06-.01.21-1.1,1.25-4.07,1.04-2.97,2.51-3.39,2.51-3.39,0,0-1.52,1.65-1.76,2.89,0,0,2.01-.49,3.01-1.47,0,0-.15,1.14-2.73,2.05,0,0-1.18,1.98-1.23,3.47,0,.18.11.4.31.62-.13,0-.2-.03-.2-.03,1.01.64,4.37,3.42,6.65,5.34Z"/>
              <path class="cls-35" d="M28.18,9.39c-1.6.73-2.26,2.26-3.18,4.27-.78,1.65-2.63,1.55-3.22,1.47-.12,0-.19-.02-.19-.02.94.58,3.86,3,6.1,4.87-.36.78-.72,1.47-1.05,2-2.33-3.24-5.16-4.8-5.16-4.8,0,0-.64,4.81-4.29,6.51-3.65,1.7-7.92-.41-6.55-1.89,1.38-1.47,1.62-3.76,1.62-3.76-2.54.94-6.66-.12-5-1.66,1.64-1.54,1.92-3.13,1.92-3.13,0,0-1.77-1.07-2.9-4.25-1.04-3-1.11-3.99-1.11-4.07h0s2.84-.36,9.04,5.76c6.21,6.11,8.37,3.76,10.15.63,1.78-3.15,2.89-2.71,3.64-2.93.15-.04.26-.17.34-.34.33.6.31,1.15-.16,1.36Z"/>
              <g class="cls-23">
                <path class="cls-33" d="M18.25.85s.08.01.16.04c3.02.95,3.43,4.32,3.49,4.97l-.44.35c-.09.07-.11.19-.05.29.04.07.11.1.19.1.03,0,.06,0,.09-.02.8-.38,1.62-.57,2.43-.57,1.88,0,3.46,1.07,4.04,2.13.18.32.24.61.17.81-.04.11-.11.19-.23.24-1.63.74-2.33,2.27-3.21,4.2l-.08.17c-.54,1.14-1.64,1.38-2.47,1.38-.22,0-.41-.02-.54-.04-.11,0-.17-.02-.18-.02-.01,0-.02,0-.03,0-.09,0-.17.06-.21.14-.04.1,0,.21.09.26.89.55,3.61,2.79,6.07,4.84.13.12.25.22.38.32l.18.15c.98.83,1.77,1.51,2.09,1.78-.33.45-1.03,1.22-1.63,1.22-.23,0-.44-.12-.62-.36-.16-.21-.33-.41-.5-.6-.19-.22-.36-.42-.53-.65l-.04-.06s-.04-.06-.05-.08c-2.33-3.25-5.11-4.8-5.23-4.87-.03-.02-.07-.03-.11-.03-.03,0-.07,0-.1.02-.06.03-.11.1-.12.17,0,.05-.67,4.71-4.16,6.34-.86.4-1.83.61-2.81.61-1.85,0-3.33-.75-3.63-1.44-.11-.25-.06-.49.14-.71,1.42-1.51,1.67-3.79,1.68-3.89,0-.08-.02-.15-.08-.2-.04-.03-.09-.05-.14-.05-.03,0-.05,0-.08.01-.6.22-1.33.34-2.1.34-1.44,0-2.74-.42-2.95-.96-.08-.2.02-.43.28-.68,1.68-1.57,1.97-3.18,1.98-3.25.02-.09-.03-.18-.1-.23-.02-.01-1.72-1.08-2.81-4.13-.85-2.47-1.05-3.55-1.09-3.9.41-.23,1.98-.97,5.11-1.17.28-.02.54-.02.78-.02,2.97,0,3.84,1.08,3.84,1.09.04.06.11.09.18.09.02,0,.03,0,.05,0,.09-.02.15-.09.17-.17,0-.01.21-1.04,1.11-1.97.37-.39.64-.81.87-1.19.28-.44.52-.82.74-.82M18.25.63c-.58,0-.91,1.18-1.77,2.08-.96,1-1.16,2.08-1.16,2.08,0,0-.87-1.18-4.02-1.18-.25,0-.51,0-.79.02-3.8.23-5.33,1.27-5.33,1.27h0c0,.1.07,1.09,1.11,4.09,1.13,3.18,2.9,4.25,2.9,4.25,0,0-.27,1.59-1.92,3.13-1.22,1.14.71,2.02,2.82,2.02.75,0,1.52-.11,2.18-.36,0,0-.24,2.29-1.62,3.76-1.01,1.09,1.04,2.52,3.65,2.52.93,0,1.94-.18,2.9-.63,3.65-1.7,4.29-6.51,4.29-6.51,0,0,2.83,1.56,5.16,4.8.03.04.06.1.09.14.31.44.7.81,1.02,1.25.25.33.52.45.8.45.95,0,1.93-1.48,1.93-1.48,0,0-.96-.81-2.24-1.91-.18-.15-.37-.29-.55-.46-2.24-1.86-5.17-4.29-6.1-4.87,0,0,.07.01.19.02.13.02.33.04.56.04.8,0,2.05-.23,2.66-1.51.92-2.01,1.57-3.54,3.18-4.27.48-.21.5-.76.16-1.36-.57-1.03-2.16-2.24-4.23-2.24-.78,0-1.63.17-2.52.59l.53-.42s-.13-4.17-3.65-5.28c-.08-.04-.15-.05-.22-.05h0Z"/>
              </g>
              <ellipse class="cls-14" cx="10.61" cy="3.99" rx="1.61" ry=".52" transform="translate(-.16 .45) rotate(-2.39)"/>
              <ellipse class="cls-14" cx="10.84" cy="5.12" rx=".61" ry=".32" transform="translate(-.2 .46) rotate(-2.39)"/>
              <path class="cls-16" d="M5.36,5.03s3.81,1.33,6.93,4.12c0,0-3.62.07-4.38.46-.76.4,1.88.18,4.52.92,2.64.74,4.61,2.9,4.61,2.9,0,0-1.32,1.17-3.55,1.09-2.23-.08-4.64.73-4.63.63s.89-1.51.88-1.79-1.73-1.35-2.62-3.6-1.05-3.71-1.05-3.71"/>
            </g>
            <g>
              <g>
                <g>
                  <path class="cls-9" d="M37.08,13.65c-.06,0-.13-.02-.18-.07-.07-.06-.11-.16-.09-.25l.32-2c.01-.09.07-.16.15-.2.01,0,1.23-.61,2.27-1.47.51-.42.87-.82,1.11-1.2.3-.47.38-.93.21-1.23-.09-.17-.26-.26-.46-.26-.25,0-.52.14-.78.38-.05.05-.12.08-.19.08-.05,0-.11-.02-.16-.05-.11-.07-.15-.21-.09-.33.02-.05.58-1.28,1.84-1.28.23,0,.47.04.72.13.57.2.96.8,1.05,1.62.12.96-.21,2.06-.9,3.02,0,0,0,0,0,.01-.98,1.36-2.61,2.42-4.74,3.09-.03,0-.05.01-.08.01Z"/>
                  <path class="cls-51" d="M41.03,6.04c.19,0,.4.03.63.11.46.16.79.68.87,1.39.1.8-.13,1.84-.86,2.85,0,0,0,.01-.01.02-.82,1.13-2.26,2.23-4.58,2.96l.32-2s1.25-.61,2.32-1.5c.01-.01.02-.02.03-.03.45-.37.86-.79,1.14-1.24.68-1.08.24-1.91-.48-1.91-.29,0-.64.14-.97.46,0,0,.49-1.12,1.59-1.12M41.03,5.49h0c-1.44,0-2.06,1.38-2.09,1.44-.1.24-.03.52.19.67.09.07.2.1.31.1.14,0,.27-.05.38-.15.2-.19.42-.31.59-.31.1,0,.18.04.22.12.09.15.08.5-.2.95-.22.36-.57.73-1.02,1.11,0,0-.02.02-.03.03h0c-1.01.84-2.21,1.43-2.22,1.43-.16.08-.27.23-.3.4l-.32,2c-.03.19.04.38.18.5.1.09.23.13.36.13.05,0,.11,0,.16-.03,2.18-.69,3.86-1.78,4.86-3.16.01-.02.03-.04.04-.06.72-1.02,1.06-2.18.94-3.2-.11-.92-.57-1.61-1.24-1.84-.27-.09-.54-.14-.81-.14h0Z"/>
                </g>
                <path class="cls-36" d="M37.08,13.38l.32-2s1.25-.61,2.32-1.5c.41.16.93.13,1.59-.3.87-.58,1.17-1.35,1.22-2.03.2,1.69-1.03,4.44-5.45,5.83Z"/>
                <path class="cls-13" d="M41.67,10.4c.38-.71.92-2.01.56-3.13-.52-1.67-1.95-.72-1.95-.72,0,0,1.39-.2,1.11,1.26-.28,1.46-1.63,2.04-1.63,2.04.45-.37.86-.79,1.14-1.24.96-1.52-.31-2.55-1.45-1.45,0,0,.68-1.54,2.22-1,.46.16.79.68.87,1.39.1.8-.13,1.84-.86,2.85Z"/>
              </g>
              <g>
                <path class="cls-8" d="M31.16,26.59s-.09-.01-.13-.04l-2.65-1.51c-.07-.04-.12-.12-.13-.2s.02-.17.08-.23c.07-.07,1.65-1.67-.82-4.45-.97-1.09-1.48-2.34-1.43-3.53.08-1.9,1.44-3.25,3.23-3.25h.13c.72.03,1.41.09,2.08.14.19.02.38.03.56.05-.64-.29-1.29-.78-1.7-1.59-.44-.86-.24-1.95.54-2.92.09-.11.19-.22.29-.33.87-.88,2.07-1.38,3.31-1.38.42,0,.84.06,1.26.17,1.53.41,2.79,1.42,3.56,2.86.72,1.34.91,2.92.5,4.1-.29.85-.83,1.52-1.61,1.99-.82.5-1.92.78-3.1.78-.2,0-.4,0-.6-.02-.05,0-.1,0-.15,0-.37,0-.64.11-.83.33-.36.42-.34,1.18-.29,1.49.18.09.39.18.62.26,1.54.54,2.3,1.59,2.67,2.37.4.85.51,1.8.29,2.41-.37,1.01-4.38,2.17-5.6,2.5-.02,0-.05,0-.07,0ZM33.01,11.25c.21.13,1.09.64,2.17.64.75,0,1.43-.24,2.04-.72.02-.02.04-.03.06-.04,0-.4-.06-.73-.09-.86,0-.06.02-.12.04-.18-.27-.21-.62-.37-1.07-.44-.26-.04-.51-.07-.74-.07-1.61,0-2.21,1.02-2.43,1.66Z"/>
                <path class="cls-51" d="M34.52,7.63c.38,0,.78.05,1.19.16,3.32.89,4.59,4.5,3.87,6.61-.28.83-.82,1.44-1.49,1.84-.86.52-1.94.74-2.96.74-.19,0-.39,0-.58-.02-.06,0-.12,0-.17,0-1.7,0-1.41,2.05-1.39,2.18h0s-.04-.01-.12-.05c-.01-.01-.02-.02-.03-.02-.09-.04-.21-.11-.34-.21-.07-.05-.14-.11-.21-.17-.26-.26-.51-.64-.6-1.18v-.02c-.02-.13-.04-.26-.04-.4,0,0-.45,1.57,2.13,2.48,2.58.91,3.14,3.46,2.79,4.43-.35.96-5.41,2.33-5.41,2.33l-2.06-1.17-.59-.34s1.89-1.8-.81-4.82c-1-1.12-1.4-2.31-1.36-3.33v-.04c.07-1.68,1.3-2.95,2.96-2.95.04,0,.08,0,.12,0,1.57.06,3.03.27,4.32.27.98,0,1.86-.12,2.6-.53,1.56-.88,1.18-2.87,1.11-3.19,0-.02,0-.03,0-.03.02.02.05.07.11.14.17.24.52.75.75,1.34h0c.09.21.15.44.2.66,0,0,.06-2.53-2.3-2.94-.28-.05-.54-.07-.79-.07-1.49,0-2.36.82-2.71,1.9-.08.25-.13.51-.16.78l.23-.55s1.04.71,2.37.71c.69,0,1.47-.19,2.21-.78,0,0,.05,2.38-3.06,2.38-.1,0-.2,0-.31,0h0c-.13,0-2.46-.03-3.39-1.88-.4-.8-.16-1.8.51-2.62.09-.11.18-.21.28-.32.74-.75,1.85-1.29,3.12-1.29M34.52,7.08h0c-1.31,0-2.59.53-3.51,1.46-.12.12-.22.24-.32.36-.84,1.05-1.06,2.25-.57,3.21.23.46.53.82.86,1.1-.5-.04-1.01-.08-1.54-.09-.05,0-.1,0-.14,0-1.92,0-3.42,1.49-3.5,3.47,0,0,0,.05,0,.06-.05,1.24.48,2.56,1.5,3.7,2.29,2.57.89,4.01.83,4.07-.12.12-.18.29-.16.46.02.17.12.32.27.4l.59.34,2.06,1.17c.08.05.18.07.27.07.05,0,.1,0,.14-.02,1.99-.54,5.4-1.6,5.78-2.67.25-.68.13-1.7-.3-2.62-.55-1.17-1.55-2.06-2.82-2.51-.17-.06-.32-.12-.45-.18-.02-.31,0-.84.25-1.13.09-.1.24-.23.62-.23.04,0,.09,0,.13,0,.2.02.41.02.62.02.87,0,2.14-.14,3.24-.82.83-.51,1.41-1.23,1.72-2.13.43-1.26.23-2.91-.52-4.32-.8-1.5-2.12-2.56-3.73-2.99-.44-.12-.89-.18-1.33-.18h0ZM33.35,11.13c.28-.63.86-1.27,2.09-1.27.22,0,.45.02.69.06.31.05.57.15.78.28,0,.03,0,.05,0,.08,0,.02,0,.03,0,.05.02.1.07.35.08.65-.55.42-1.17.63-1.83.63-.8,0-1.49-.3-1.83-.48h0Z"/>
              </g>
              <path class="cls-13" d="M39.58,14.4c-.28.84-.82,1.44-1.49,1.84-1.15.31-2.06.25-2.06.25,0,0,2.55-.22,3.15-1.85.59-1.63.15-4.68-2.69-6.13-2.13-1.09-4.19-.14-5.09.41.97-.98,2.55-1.6,4.31-1.14,3.32.89,4.59,4.5,3.87,6.61Z"/>
              <path class="cls-13" d="M26.76,16.61c-.4,1.91,1.4,2.45,2.44,5.12.71,1.84.32,2.85-.09,3.41l-.59-.34s1.89-1.8-.81-4.82c-1-1.12-1.4-2.31-1.36-3.33,1.1-2.41,4.87-1.7,5.29-1.62-.41-.04-4.45-.48-4.88,1.58Z"/>
              <path class="cls-13" d="M27.61,16.91c0,.6-.21,1.09-.48,1.09s-.48-.49-.48-1.09c0-.6.21-1.09.48-1.09s.48.49.48,1.09Z"/>
              <path class="cls-13" d="M28.03,18.18c0,.24-.11.43-.25.43s-.25-.19-.25-.43.11-.43.25-.43.25.19.25.43Z"/>
              <path class="cls-36" d="M38.09,16.24c-1.02.62-2.35.81-3.54.71-1.89-.14-1.58,2.04-1.56,2.17-.04-.02-.08-.03-.12-.05-.01-.01-.02-.02-.03-.02-.11-.07-.23-.13-.34-.21-.07-.05-.14-.11-.21-.17-.3-.28-.53-.67-.6-1.18v-.02c-.22-1.81,2.25-.98,4.55-.98.72,0,1.34-.11,1.85-.25Z"/>
              <path class="cls-36" d="M30.62,11.86c-.4-.8-.16-1.8.51-2.63-.17.44-.26.99.01,1.52.38.74,1.12.62,1.59.45-.08.25-.13.51-.16.78l.23-.55s2.4,1.65,4.58-.07c0,0,.05,2.53-3.37,2.37,0,0-2.43.03-3.4-1.88Z"/>
              <path class="cls-36" d="M38.45,13.71c-.37,2.54-4.6,1.44-7.85,1.23-2.19-.14-3.54.32-4.25,1.66,0-.09.01-.17.02-.26.19-1.59,1.43-2.75,3.06-2.69,2.76.1,5.22.68,6.93-.27,1.56-.88,1.18-2.87,1.11-3.19.03.03.07.07.1.11.2.21.5.59.69,1.17.02.05.04.11.06.17h0c.16.54.24,1.22.12,2.06Z"/>
              <path class="cls-36" d="M38.45,13.71c-.37,2.54-4.6,1.44-7.85,1.23-2.19-.14-3.54.32-4.25,1.66,0-.09.01-.17.02-.26.24-.54.99-1.74,3.07-1.78,2.67-.06,5.15.83,7.71.38,1.41-.25,1.41-1.96,1.12-3.45.02.05.04.11.06.17h0c.16.54.24,1.22.12,2.06Z"/>
            </g>
            <g>
              <g>
                <g>
                  <path class="cls-10" d="M32.07,69.23c-3.1,0-5.59-.4-7.4-1.18-.02,0-.04-.02-.05-.03-.97-.42-1.47-.86-1.68-1.08-.82.14-1.65.21-2.46.21-4.5,0-7.37-2.12-7.9-2.54-3.2-.22-6.36-2.29-8.69-5.68-1.68-2.49-2.82-5.57-3.3-8.93-1.48-10.52,2.93-19.71,11.77-24.59,6.36-3.5,11.09-4.23,13.95-4.23,1.45,0,2.22.2,2.26.21.1.03.18.1.21.19,1.2-.3,2.2-.35,2.75-.35.31,0,.51.02.55.02,0,0,.21-.02.54-.02.57,0,1.55.06,2.74.35.04-.09.11-.16.21-.18.03,0,.81-.21,2.26-.21,2.86,0,7.59.73,13.95,4.23,8.85,4.88,13.25,14.07,11.77,24.59-1.3,9.17-6.99,14.27-11.99,14.61-.53.42-3.39,2.54-7.9,2.54-.81,0-1.63-.07-2.46-.21-.52.55-2.69,2.29-9.15,2.29Z"/>
                  <path class="cls-48" d="M37.83,21.48c2.57,0,7.33.63,13.8,4.19,10.05,5.54,12.86,15.44,11.62,24.28-1.25,8.82-6.78,14.07-11.8,14.35,0,0-2.94,2.53-7.77,2.53-.81,0-1.67-.07-2.58-.24,0,0-1.59,2.32-9.03,2.32-3.71,0-5.95-.58-7.28-1.15,0,0,0-.01-.01-.01-1.32-.57-1.73-1.15-1.73-1.15-.91.17-1.77.24-2.58.24-4.83,0-7.77-2.53-7.77-2.53-3.01-.17-6.2-2.11-8.55-5.55-1.56-2.3-2.75-5.26-3.24-8.8-1.24-8.83,1.57-18.74,11.62-24.28,6.47-3.56,11.23-4.19,13.8-4.19,1.42,0,2.18.19,2.18.19-1.01.23-1.91.61-2.7,1.08-3.67,2.14-5.22,6.17-5.52,7.04,1.58-3.88,3.96-5.94,6.16-7.04.19-.11.39-.19.58-.28.34-.15.68-.28,1.01-.38,1.51-.5,2.81-.58,3.5-.58.34,0,.53.02.53.02,0,0,.2-.02.56-.02,1.9,0,8.16.61,11.27,8.36-.26-.77-2.44-6.84-8.25-8.2,0,0,.75-.19,2.18-.19M37.83,20.85h0c-1.49,0-2.3.21-2.34.21-.1.03-.18.07-.26.13-1.13-.26-2.06-.31-2.61-.31-.27,0-.47.01-.56.02-.09,0-.27-.02-.53-.02-.53,0-1.48.05-2.62.31-.07-.06-.16-.11-.26-.14-.03,0-.85-.21-2.33-.21-2.89,0-7.69.74-14.1,4.27C3.25,30.07-1.21,39.38.28,50.04c.48,3.4,1.64,6.54,3.35,9.06,2.36,3.44,5.57,5.55,8.83,5.81.72.55,3.61,2.55,8.01,2.55.78,0,1.56-.06,2.35-.19.28.26.79.65,1.64,1.03.03.02.05.03.08.04,1.86.8,4.39,1.21,7.53,1.21,6.18,0,8.52-1.56,9.26-2.27.78.12,1.57.19,2.34.19,4.41,0,7.3-2,8.01-2.55,5.1-.41,10.86-5.6,12.18-14.87,1.49-10.66-2.97-19.97-11.93-24.91-6.41-3.53-11.21-4.27-14.1-4.27h0Z"/>
                </g>
                <path class="cls-27" d="M20.66,43.1s-.19-19.93,11.02-20.67,12.46,18.94,12.46,18.94"/>
                <g>
                  <path class="cls-24" d="M27.03,22.48c-3.38,2.09-8.14,7.57-8.78,21.72-.7,15.47,3.75,21.37,6.54,23.55-1.32-.57-1.73-1.15-1.73-1.15-6.34,1.15-10.35-2.3-10.35-2.3-.07,0-.13-.01-.21-.01-4.96-.41-10.35-5.64-11.59-14.34-1.24-8.83,1.57-18.74,11.62-24.28,3.92-2.16,7.22-3.24,9.78-3.75,4-.81,6.2-.24,6.2-.24-5.63,1.31-7.85,7.06-8.21,8.12,1.73-4.22,4.39-6.31,6.74-7.31Z"/>
                  <path class="cls-25" d="M6.6,48.94c.73,7.84,3.58,12.66,5.89,15.35-4.96-.41-10.35-5.64-11.59-14.34-1.24-8.83,1.57-18.74,11.62-24.28,3.92-2.16,7.22-3.24,9.78-3.75-6.71,2.88-16.97,13.28-15.7,27.02Z"/>
                  <path class="cls-13" d="M28.5,21.67c-1.01.23-1.91.61-2.7,1.08-.9-.23-3.6-.52-7.56,1.77-4.62,2.67-6.69,6.35-6.97,6.87.26-.57,2.45-5.29,7.84-8.13-.62.19-10.47,3.45-15.87,14.53-3.94,8.06-1.09,16.61.91,20.95-1.56-2.3-2.75-5.26-3.24-8.8-1.24-8.83,1.57-18.74,11.62-24.28,10.05-5.53,15.98-4,15.98-4Z"/>
                </g>
                <g>
                  <path class="cls-26" d="M37.05,22.48c3.38,2.09,8.14,7.57,8.78,21.72.7,15.47-3.75,21.37-6.54,23.55,1.32-.57,1.73-1.15,1.73-1.15,6.34,1.15,10.35-2.3,10.35-2.3.07,0,.13-.01.21-.01,4.96-.41,10.35-5.64,11.59-14.34,1.24-8.83-1.57-18.74-11.62-24.28-3.92-2.16-7.22-3.24-9.78-3.75-4-.81-6.2-.24-6.2-.24,5.63,1.31,7.85,7.06,8.21,8.12-1.73-4.22-4.39-6.31-6.74-7.31Z"/>
                  <path class="cls-28" d="M47.44,49.6s1.42-4.98-.05-12.85-6.51-12.96-6.37-13.23,5.8.42,11.59,9.68c5.79,9.26,3.28,17.8,3.28,17.8"/>
                  <path class="cls-11" d="M16.57,49.6s-1.42-4.98.05-12.85c1.46-7.87,6.51-12.96,6.37-13.23s-5.8.42-11.59,9.68c-5.79,9.26-3.28,17.8-3.28,17.8"/>
                  <path class="cls-12" d="M57.47,48.94c-.73,7.84-3.58,12.66-5.89,15.35,4.96-.41,10.35-5.64,11.59-14.34,1.24-8.83-1.57-18.74-11.62-24.28-3.92-2.16-7.22-3.24-9.78-3.75,6.71,2.88,16.97,13.28,15.7,27.02Z"/>
                  <path class="cls-13" d="M35.58,21.67c1.01.23,1.91.61,2.7,1.08.9-.23,3.6-.52,7.56,1.77,4.62,2.67,6.69,6.35,6.97,6.87-.26-.57-2.45-5.29-7.84-8.13.62.19,10.47,3.45,15.87,14.53,3.94,8.06,1.09,16.61-.91,20.95,1.56-2.3,2.75-5.26,3.24-8.8,1.24-8.83-1.57-18.74-11.62-24.28-10.05-5.53-15.98-4-15.98-4Z"/>
                </g>
                <ellipse class="cls-13" cx="60.31" cy="37.73" rx="1.41" ry="3.52" transform="translate(-6.47 13.21) rotate(-11.87)"/>
                <ellipse class="cls-13" cx="59.55" cy="42.33" rx=".74" ry="1.47" transform="translate(-7.43 13.15) rotate(-11.87)"/>
              </g>
              <path class="cls-30" d="M27.03,22.48c.34-.15.68-.28,1.01-.38l-1.59.66c.19-.11.39-.19.58-.28Z"/>
              <g>
                <g>
                  <path class="cls-50" d="M26.45,41.74c.06,3.47-2.09,6.47-5.15,7.64,0,0-.02,0-.04.02-.75.29-1.56.47-2.4.51-.1,0-.21.01-.31.01-4.44.08-8.1-3.46-8.18-7.91-.04-2.65,1.2-5.01,3.16-6.51h0c1.02-.78,2.23-1.33,3.56-1.55l8.72,7.04.62.5c0,.08.01.16.01.24Z"/>
                  <path class="cls-5" d="M25.82,41v.07c.07,3.8-1.82,7.06-4.52,8.31,0,0-.02,0-.04.02-.71.32-1.47.5-2.27.51-.04,0-.09,0-.13,0-3.79-.02-6.9-3.84-6.98-8.6-.04-2.22.59-4.25,1.64-5.8h0c1.02-.78,2.23-1.33,3.56-1.55l8.72,7.04Z"/>
                </g>
                <g>
                  <path class="cls-50" d="M36.92,41.56c.06,3.47,2.3,6.39,5.4,7.46,0,0,.02,0,.04.01.76.26,1.58.41,2.42.43.1,0,.21,0,.31,0,4.44-.08,7.98-3.74,7.91-8.18-.04-2.65-1.37-4.97-3.38-6.39h0c-1.05-.75-2.28-1.25-3.61-1.43l-8.48,7.33-.6.52c0,.08,0,.16,0,.24Z"/>
                  <path class="cls-4" d="M37.53,40.8v.07c.07,3.8,2.06,7,4.8,8.15,0,0,.02,0,.04.01.72.3,1.49.45,2.28.44.04,0,.09,0,.13,0,3.79-.15,6.76-4.07,6.68-8.83-.04-2.22-.73-4.23-1.84-5.74h0c-1.05-.75-2.28-1.25-3.61-1.43l-8.48,7.33Z"/>
                </g>
                <path class="cls-3" d="M31.74,46.27l-1.47,2.13c-.16.23,0,.55.29.55l3.03-.05c.28,0,.44-.33.27-.56l-1.56-2.08c-.14-.19-.43-.18-.57.01Z"/>
                <g>
                  <polygon class="cls-50" points="46.51 50.37 41.85 57.89 40.16 56.35 35.83 58.33 36.06 56.92 32.42 58.78 28.72 57.05 28.99 58.45 24.6 56.61 22.96 58.21 18.05 50.85 19.31 51.26 23.62 52.63 23.62 50.47 28.78 52.87 32.27 50.13 35.85 52.75 40.93 50.17 41 52.33 45.26 50.82 46.51 50.37"/>
                  <polygon class="cls-2" points="45.26 50.82 41.82 56.37 40.14 54.83 35.81 56.81 36.03 55.4 32.39 57.27 28.69 55.52 28.97 56.93 24.57 55.09 22.94 56.69 19.31 51.26 23.62 52.63 23.62 50.47 28.78 52.87 32.27 50.13 35.85 52.75 40.93 50.17 41 52.33 45.26 50.82"/>
                </g>
              </g>
            </g>
          </g>
          <g>
            <g>
              <g>
                <path class="cls-7" d="M76.05,42.09c-.6,0-1.3-.6-1.33-.63-.07-.06-.09-.17-.03-.25l1.1-1.6c.05-.07.11-.15.16-.23.88-1.25,1.82-2.59,2.41-3.35-.14.03-.3.05-.47.05-.54,0-1.01-.21-1.36-.61l-.08-.09c-.81-.98-1.4-1.69-2.36-1.85-.17-.03-.31-.11-.4-.25-.12-.19-.15-.45-.07-.76.23-.94,1.37-2.26,3.21-2.26.03,0,.06,0,.1,0-.09-.55-.31-2.66,1.41-3.76.08-.07.18-.11.3-.11.26,0,.48.2.75.46.19.17.4.37.65.52.46.27.76.61.92.84.29-.35,1-.94,2.6-1.28.79-.16,1.52-.25,2.17-.25.84,0,1.25.14,1.27.14.06.02.11.07.13.14.02.07.14.68,0,2.64-.13,1.72-.75,2.67-.99,2.97.15.24.59.86,1.48,1.34.48.25.48.58.43.76-.17.68-1.62,1.38-2.89,1.39.2.4.66,1.16,1.35,1.58.31.19.42.5.32.84-.24.82-1.69,1.73-3.29,1.73-.24,0-.48-.02-.72-.06-2.07-.35-3.22-2.28-3.59-2.99-.41.45-1.39,1.66-2.03,3.38l-.21.03.18.07c-.06.17-.14.33-.22.49-.06.13-.13.27-.19.41-.18.44-.5.54-.74.54h0Z"/>
                <path class="cls-51" d="M78.63,26.58c.33,0,.7.58,1.3.95.72.43,1.02,1.04,1.02,1.04,0,0,.38-.97,2.65-1.45.89-.19,1.6-.24,2.13-.24.82,0,1.21.13,1.21.13h0c.01.06.13.65,0,2.58-.16,2.05-1.03,2.96-1.03,2.96,0,0,.41.89,1.63,1.53,1.16.61-.8,1.79-2.4,1.79-.09,0-.18,0-.27-.01,0,0,.51,1.31,1.56,1.95.94.59-.75,2.22-2.87,2.22-.22,0-.45-.02-.69-.06-2.42-.41-3.57-3.14-3.57-3.14,0,0-1.42,1.37-2.27,3.65-.01.03-.02.07-.03.1-.11.31-.28.59-.4.9-.12.31-.33.41-.56.41-.54,0-1.2-.58-1.2-.58,0,0,.44-.63,1.01-1.48.08-.12.17-.23.25-.36,1.02-1.46,2.35-3.35,2.81-3.84,0,0-.04.02-.11.04-.17.07-.52.19-.92.19s-.85-.12-1.21-.55c-.86-1.04-1.49-1.83-2.55-2-.31-.05-.41-.37-.31-.77.21-.86,1.28-2.11,3.02-2.11.22,0,.45.02.69.06l-.38-.16s-.59-2.48,1.3-3.69c.06-.05.13-.08.19-.08M78.63,26.19h0c-.16,0-.31.06-.44.17-1.63,1.04-1.59,2.9-1.49,3.7-1.87.06-3.03,1.43-3.27,2.4-.09.37-.05.68.1.92.12.18.31.3.53.33.88.14,1.45.83,2.24,1.78l.08.09c.39.45.9.68,1.51.68.01,0,.03,0,.04,0-.59.79-1.39,1.93-2.14,3-.06.1-.11.17-.16.24l-.09.12c-.58.85-1.01,1.48-1.01,1.48-.11.16-.08.38.06.51.08.07.79.68,1.46.68.42,0,.75-.23.92-.66.06-.14.12-.27.18-.4.08-.17.16-.33.23-.51,0-.02.01-.04.02-.07.56-1.49,1.36-2.59,1.82-3.14.49.86,1.65,2.51,3.59,2.85.25.04.5.06.75.06,1.73,0,3.22-.99,3.48-1.87.12-.42-.03-.82-.41-1.05-.53-.32-.91-.85-1.14-1.25,1.18-.11,2.57-.75,2.76-1.52.05-.19.09-.65-.53-.97-.74-.39-1.16-.89-1.34-1.16.29-.41.82-1.37.94-2.96.13-1.96.02-2.58,0-2.69-.03-.13-.13-.24-.25-.29-.05-.02-.48-.15-1.33-.15-.67,0-1.41.08-2.21.25-1.42.3-2.17.79-2.55,1.17-.19-.22-.46-.49-.84-.71-.23-.14-.44-.33-.62-.5-.3-.27-.55-.51-.88-.51h0Z"/>
              </g>
              <path class="cls-18" d="M82.44,29.01s-.34,1.33-.83,2.7-.79,1.92-.79,1.92c0,0-.61-1.67-.84-2.07s-.06-2.64-.06-2.64c0,0-.79.82-.68,1.68,0,0-.84-1.18-.97-2.1s.35-1.66.35-1.66c0,0,.4.25.73.64s.95.49,1.14.75.2.61.2.61"/>
              <path class="cls-1" d="M75.86,39.84c.35.26.78.54,1.15.75,1.68-3.52,2.76-4.22,2.92-4.3.33-.17.96.23,1.06.27.09.03.43.83.82,1.09.34.22.94.45,1.09.51-.19-.09-.93-.48-1.14-.79-.25-.35-.33-.87-.3-.94.03-.08.54.16.98.26.4.09.84.42.91.49-.06-.09-.33-.63-1.15-.86-.89-.24-1.2-.19-1.45-.28-.25-.09-.6-.27-.6-.27,0,0,.66-1.34.76-1.31.09.02.98.25,1.72.16.73-.08.87-.04.87-.04,0,0,.56.76,1.6.8,1.04.04,1.39-.28,1.39-.28,0,0-.82.17-1.41,0-.59-.18-.98-.6-.98-.6,0,0,1.47-.49,2.56-.62,0,0-1.74.09-2.8.37-1.06.27-2.75-.17-2.75-.17,0,0,.59-1.61,1.86-2.48,1.21-.81,3.02-1.24,3.2-1.28-.19,0-1.85.11-3.16.75,0,0,1.45-2.5,3.24-3.8,0,0-2.82,2.38-4.07,4.62l.53-3.08c-.01.13-.17,1.22-.7,2.58-.54,1.39-1.11,2.5-1.2,2.59.01-.07-.14-.67-.7-1.8-.59-1.17-.48-2.58-.47-2.71-.06.09-.51.83-.18,1.65,0,0-1.1-1.39-1.39-2.93,0,0-.35.74.85,2.56,1.2,1.81,1.67,3.25,1.61,3.55-.07.31-.89,1.11-.93,1.12-.04,0-.3-.61-1.39-2.19-1.09-1.58-2.02-1.59-2.02-1.59,0,0,1.16.73,1.5,1.42,0,0-1.26.04-2-.38,0,0,.27.65,1.93.77,0,0,1.01.97,1.28,1.85.03.11,0,.25-.09.41.07-.02.11-.05.11-.05-.49.54-2.02,2.71-3.06,4.21Z"/>
              <path class="cls-37" d="M74.13,33.33c1.06.17,1.69.97,2.55,2,.73.85,1.79.49,2.13.35.07-.02.11-.04.11-.04-.46.49-1.79,2.38-2.81,3.84.34.4.66.75.94,1.01.85-2.28,2.27-3.65,2.27-3.65,0,0,1.15,2.73,3.57,3.14,2.42.41,4.59-1.51,3.55-2.16-1.05-.64-1.56-1.95-1.56-1.95,1.64.15,3.9-1.14,2.67-1.78-1.21-.64-1.63-1.53-1.63-1.53,0,0,.87-.91,1.03-2.96.13-1.93.01-2.52,0-2.57h0s-1.72.24-4.39,4.83c-2.68,4.59-4.32,3.55-5.87,1.99-1.55-1.57-2.13-1.13-2.61-1.14-.09,0-.18-.06-.25-.14-.1.41,0,.73.31.77Z"/>
              <g class="cls-23">
                <path class="cls-33" d="M78.63,26.71c.13,0,.32.18.53.37.2.18.42.39.7.56.68.41.96.97.97.98.02.05.07.07.12.07h0c.05,0,.1-.03.12-.08,0,0,.4-.91,2.55-1.37.76-.16,1.47-.24,2.1-.24.58,0,.94.07,1.09.11.03.2.09.86-.02,2.47-.15,1.97-.98,2.87-.99,2.88-.04.04-.05.1-.02.15.02.04.45.94,1.69,1.59.32.17.28.34.27.39-.12.49-1.43,1.15-2.61,1.15-.09,0-.17,0-.26-.01,0,0,0,0-.01,0-.04,0-.08.02-.11.05-.03.04-.03.09-.02.13.02.06.54,1.36,1.61,2.02.18.11.24.27.18.47-.18.61-1.42,1.5-2.98,1.5-.22,0-.45-.02-.66-.06-2.32-.4-3.45-3.03-3.46-3.06-.02-.04-.05-.07-.1-.08,0,0-.02,0-.03,0-.03,0-.07.01-.09.04-.06.06-1.45,1.42-2.3,3.7,0,.02-.01.04-.02.06v.04c-.07.16-.14.31-.22.46-.07.14-.14.28-.2.43-.09.23-.23.33-.44.33-.37,0-.83-.32-1.02-.47.15-.21.5-.73.94-1.38l.08-.12c.06-.08.11-.16.17-.24.81-1.16,2.32-3.32,2.8-3.83.04-.05.05-.12.01-.17-.03-.04-.07-.06-.11-.06-.02,0-.04,0-.05.01,0,0-.04.02-.11.04-.16.07-.49.18-.87.18-.45,0-.82-.17-1.11-.5l-.08-.09c-.83-1-1.48-1.78-2.56-1.96-.08-.01-.14-.05-.18-.1-.07-.11-.08-.29-.03-.5.2-.83,1.23-2.01,2.89-2.01.22,0,.44.02.66.06,0,0,.02,0,.02,0,.06,0,.11-.04.13-.1.02-.07-.01-.14-.08-.16l-.31-.13c-.07-.39-.37-2.44,1.27-3.49.05-.04.08-.04.11-.04M78.63,26.58c-.07,0-.13.02-.19.08-1.89,1.21-1.3,3.69-1.3,3.69l.38.16c-.24-.04-.47-.06-.69-.06-1.74,0-2.81,1.26-3.02,2.11-.1.41,0,.73.31.77,1.06.17,1.69.97,2.55,2,.36.42.81.55,1.21.55s.75-.12.92-.19c.07-.02.11-.04.11-.04-.46.49-1.79,2.38-2.81,3.84-.08.13-.17.24-.25.36-.58.85-1.01,1.48-1.01,1.48,0,0,.66.58,1.2.58.23,0,.44-.11.56-.41.12-.31.29-.59.4-.9.01-.03.02-.07.03-.1.85-2.28,2.27-3.65,2.27-3.65,0,0,1.15,2.73,3.57,3.14.23.04.46.06.69.06,2.12,0,3.81-1.63,2.87-2.22-1.05-.64-1.56-1.95-1.56-1.95.09,0,.18.01.27.01,1.61,0,3.56-1.18,2.4-1.79-1.21-.64-1.63-1.53-1.63-1.53,0,0,.87-.91,1.03-2.96.13-1.93.01-2.52,0-2.57h0s-.39-.14-1.21-.14c-.53,0-1.24.06-2.13.24-2.27.48-2.65,1.45-2.65,1.45,0,0-.29-.6-1.02-1.04-.6-.37-.98-.95-1.3-.95h0Z"/>
              </g>
              <ellipse class="cls-14" cx="83.6" cy="27.34" rx=".98" ry=".32" transform="translate(-3.98 19.26) rotate(-12.84)"/>
              <ellipse class="cls-14" cx="83.64" cy="28.04" rx=".37" ry=".19" transform="translate(-4.14 19.28) rotate(-12.84)"/>
              <path class="cls-20" d="M86.85,27.11s-2.03,1.39-3.42,3.53c0,0,2.14-.54,2.65-.43s-1.08.41-2.51,1.27c-1.44.86-2.24,2.44-2.24,2.44,0,0,.96.48,2.26.07s2.85-.32,2.83-.37-.77-.75-.81-.91.8-1.07.97-2.54.03-2.35.03-2.35"/>
            </g>
            <g>
              <g>
                <path class="cls-6" d="M62.8,37.25s-.04,0-.06-.02l-.62-.58c-.41-.39-.85-.81-1.11-1.08,0,.21-.06.47-.32.63-.46.28-.75.46-.87.8-.03.11-.12.17-.24.17-.06,0-.12-.01-.18-.04-.38-.16-.78-.7-.67-1.38,0,0-.01,0-.01,0-.23,0-1.01-.05-1.32-.76-.1-.16.06-.28.2-.39.07-.06.16-.13.23-.21.12-.15.26-.24.36-.29-.12-.14-.29-.44-.33-1.05-.05-.9.15-1.3.16-1.31l.11-.05c.08,0,.35.01.97.15.7.16,1.03.49,1.1.57.01-.05.3-.17.55-.51.07-.09.15-.14.24-.14.06,0,.15.02.24.14.16.21.28.65.23,1.04.17-.06.46-.18.65-.41.06-.07.14-.11.22-.11.12,0,.25.08.36.24.21.3.36.87.18,1.42-.25.75-1.02,1.08-1.33,1.19.16.19.55.61,1.14.94.1.05.15.09.21.13.05.03.09.06.14.09.13.08.16.18.17.25.02.26-.29.52-.32.55-.02.01-.04.02-.06.02Z"/>
                <path class="cls-51" d="M58.11,31.77c.08,0,.33.01.95.15.77.18,1.06.56,1.06.56,0,0,.36-.11.67-.53.06-.07.11-.11.17-.11.26,0,.48.72.35,1.22,0,0,.52-.12.83-.48.05-.05.1-.08.15-.08.31,0,.71.79.46,1.54-.3.89-1.39,1.17-1.39,1.17,0,0,.44.61,1.25,1.07.01,0,.02.01.04.02.11.06.21.14.32.2.36.21-.16.66-.16.66,0,0-.21-.2-.5-.47-.04-.04-.08-.08-.12-.11-.49-.47-1.13-1.08-1.29-1.28,0,0,0,.02.01.04.03.13.11.56-.26.78-.44.27-.78.46-.9.85-.02.07-.08.11-.16.11-.05,0-.1-.01-.15-.03-.35-.14-.83-.73-.56-1.52l-.08.13s-.03,0-.08,0c-.24,0-.95-.06-1.24-.71-.1-.16.21-.27.42-.51.21-.25.45-.33.45-.33,0,0-.34-.2-.4-1.08-.05-.89.15-1.27.15-1.27h0s.01,0,.02,0M58.11,31.59s-.03,0-.04,0c-.06,0-.12.04-.15.09,0,.02-.22.44-.17,1.36.03.53.16.85.28,1.02-.09.06-.2.15-.3.27-.06.08-.15.14-.22.2-.14.11-.35.28-.21.52.29.66.99.77,1.31.79-.07.7.36,1.22.74,1.37.08.03.15.05.22.05.16,0,.28-.09.33-.23.1-.31.39-.49.79-.73l.04-.02c.22-.14.32-.33.35-.51.26.26.63.61.97.94.03.03.06.05.08.08l.04.04.5.47s.08.05.12.05c.04,0,.08-.01.11-.04.06-.05.38-.33.35-.63,0-.09-.05-.22-.21-.32-.05-.03-.09-.06-.14-.09-.06-.04-.12-.08-.18-.12-.52-.29-.88-.64-1.07-.85.37-.15,1.03-.5,1.26-1.2.19-.59.04-1.18-.19-1.5-.13-.18-.28-.27-.44-.27-.08,0-.19.02-.29.14-.14.16-.33.27-.49.34.01-.36-.08-.75-.25-.97-.11-.14-.23-.17-.31-.17s-.2.03-.31.18c-.18.24-.38.37-.49.42-.15-.14-.48-.39-1.06-.52-.63-.14-.9-.15-.99-.15h0Z"/>
              </g>
              <path class="cls-21" d="M58.58,33.58s.48.2.97.47.68.41.68.41c0,0-.67.13-.83.2s-1-.13-1-.13c0,0,.27.35.6.35,0,0-.5.25-.85.24s-.61-.23-.61-.23c0,0,.12-.14.29-.24s.24-.33.35-.39.24-.04.24-.04"/>
              <path class="cls-1" d="M62.3,36.69c.12-.12.25-.26.35-.39-1.23-.84-1.43-1.28-1.46-1.35-.04-.13.14-.35.16-.38.02-.03.34-.12.46-.25.1-.11.23-.33.26-.38-.05.07-.23.32-.36.39-.15.08-.35.07-.37.06-.03-.01.09-.19.15-.35.06-.15.21-.29.24-.32-.04.02-.26.09-.39.39-.14.32-.14.44-.19.53-.05.09-.14.21-.14.21,0,0-.47-.33-.45-.36.01-.03.15-.36.16-.64.01-.28.03-.33.03-.33,0,0,.32-.17.39-.56.08-.39-.03-.54-.03-.54,0,0,.02.32-.08.53-.1.21-.28.34-.28.34,0,0-.1-.58-.09-1,0,0-.06.66-.02,1.08.04.42-.22,1.03-.22,1.03,0,0-.58-.31-.83-.85-.24-.51-.3-1.21-.3-1.28,0,.07-.07.7.1,1.24,0,0-.86-.69-1.25-1.45,0,0,.74,1.2,1.51,1.8l-1.13-.38s.45.14.94.41c.5.28.88.56.91.6-.02,0-.26.01-.72.16-.48.16-1,.03-1.05.02.03.03.29.24.61.16,0,0-.59.34-1.19.36,0,0,.26.18,1.01-.18.75-.35,1.33-.45,1.44-.4.11.04.37.4.37.41,0,.01-.25.08-.91.4-.66.32-.72.67-.72.67,0,0,.34-.4.62-.49,0,0-.06.48-.26.74,0,0,.26-.06.4-.69,0,0,.43-.33.77-.38.04,0,.09.01.15.06,0-.03-.01-.04-.01-.04.17.22.91.92,1.41,1.4Z"/>
              <path class="cls-29" d="M59.74,36.97c.13-.39.46-.58.9-.85.36-.23.29-.65.26-.78,0-.03-.01-.04-.01-.04.16.2.8.81,1.29,1.28.17-.11.32-.21.44-.3-.81-.45-1.25-1.07-1.25-1.07,0,0,1.1-.28,1.39-1.17.3-.89-.31-1.82-.61-1.47-.3.36-.83.48-.83.48.15-.61-.21-1.54-.52-1.11-.31.42-.67.53-.67.53,0,0-.3-.38-1.06-.56-.72-.16-.95-.15-.97-.15h0s0,.67,1.58,1.94c1.58,1.28,1.09,1.84.42,2.33-.68.5-.55.74-.58.92,0,.03-.03.06-.07.09.15.06.27.04.31-.07Z"/>
              <g class="cls-23">
                <path class="cls-33" d="M58.12,31.82c.07,0,.33.01.93.15.74.17,1.03.54,1.03.54.01.01.03.02.04.02,0,0,0,0,.01,0,.02,0,.38-.12.7-.55.04-.06.08-.09.13-.09.05,0,.1.05.13.09.16.2.27.69.17,1.07,0,.02,0,.04.01.05,0,.01.02.02.04.02,0,0,0,0,.01,0,.02,0,.54-.13.86-.49.03-.04.07-.06.11-.06.08,0,.17.07.25.18.19.27.33.79.16,1.3-.28.85-1.35,1.13-1.36,1.13-.02,0-.03.02-.04.03,0,.02,0,.03,0,.05.02.03.45.63,1.27,1.08,0,0,.01,0,.02.01h.02c.06.04.11.07.16.11.05.03.1.07.15.1.06.04.1.08.1.14.01.14-.15.32-.24.4-.07-.07-.25-.23-.47-.44l-.04-.04s-.05-.05-.08-.08c-.54-.52-1.13-1.09-1.28-1.28-.01-.01-.02-.02-.04-.02,0,0-.02,0-.02,0-.02.01-.03.04-.03.06,0,0,0,.02,0,.04.04.15.09.53-.23.73l-.04.02c-.42.26-.76.46-.89.85-.02.05-.05.07-.11.07-.04,0-.08-.01-.13-.03-.31-.13-.79-.69-.53-1.45,0-.02,0-.05-.03-.06,0,0-.01,0-.02,0-.02,0-.03,0-.04.02l-.07.11s-.03,0-.05,0c-.21,0-.92-.05-1.2-.68-.04-.06.02-.11.16-.22.08-.06.17-.14.25-.23.19-.23.42-.31.43-.31.02,0,.03-.02.04-.04,0-.02,0-.04-.02-.05,0,0-.32-.2-.37-1.04-.04-.73.09-1.11.13-1.22M58.11,31.77s-.02,0-.02,0h0s-.2.38-.15,1.27c.05.89.4,1.08.4,1.08,0,0-.25.08-.45.33-.21.25-.51.35-.42.51.29.65,1.01.71,1.24.71.05,0,.08,0,.08,0l.08-.13c-.27.79.21,1.38.56,1.52.05.02.11.03.15.03.08,0,.14-.03.16-.11.13-.39.46-.58.9-.85.36-.23.29-.65.26-.78,0-.03-.01-.04-.01-.04.16.2.8.81,1.29,1.28.04.04.08.08.12.11.29.27.5.47.5.47,0,0,.53-.44.16-.66-.11-.06-.21-.14-.32-.2-.01,0-.02-.01-.04-.02-.81-.45-1.25-1.07-1.25-1.07,0,0,1.1-.28,1.39-1.17.25-.76-.15-1.54-.46-1.54-.06,0-.11.02-.15.08-.3.36-.83.48-.83.48.12-.5-.1-1.22-.35-1.22-.05,0-.11.03-.17.11-.31.42-.67.53-.67.53,0,0-.3-.38-1.06-.56-.61-.14-.87-.15-.95-.15h0Z"/>
              </g>
              <ellipse class="cls-14" cx="58.02" cy="33.05" rx=".12" ry=".37" transform="translate(-2.26 4.32) rotate(-4.18)"/>
              <ellipse class="cls-14" cx="58.29" cy="33.07" rx=".07" ry=".14" transform="translate(-2.26 4.34) rotate(-4.18)"/>
              <path class="cls-22" d="M58.12,31.81s.41.85,1.14,1.5c0,0-.08-.84,0-1.03s.09.43.33,1.02.79.99.79.99c0,0,.23-.34.16-.85s.04-1.09.02-1.09-.33.25-.39.25-.36-.36-.9-.51-.89-.15-.89-.15"/>
            </g>
            <g>
              <g>
                <g>
                  <path class="cls-44" d="M58.79,41.52c-.64,0-1.17-.33-1.43-.9-.44-.97.26-1.64.68-1.86.02-.01.05-.02.08-.02.05,0,.09.02.13.06.05.06.05.14,0,.21-.25.35-.2.73-.08.98.13.25.36.41.6.41.43,0,.85-.46,1.17-1.25,1.05-2.63,2.57-3.81,2.64-3.86.03-.02.07-.03.1-.03.04,0,.08.01.11.04.17.19.49.59.45,1.08-.02.33-.2.63-.53.89-.61.48-.83.96-1.14,1.63-.18.4-.39.86-.73,1.39-.43.69-1.1,1.16-1.81,1.24-.08.01-.17.02-.26.02Z"/>
                  <path class="cls-51" d="M62.69,35.4s0,0,.03.04c.16.18.8.96-.1,1.68-1.02.8-1.02,1.65-1.9,3.06-.42.69-1.07,1.09-1.69,1.16-.08.01-.16.02-.24.02-.54,0-1.03-.26-1.28-.81-.49-1.08.61-1.65.61-1.65-.51.71-.03,1.65.66,1.65.42,0,.93-.36,1.33-1.36,1.04-2.62,2.58-3.79,2.58-3.79M58.12,38.9h0M62.69,35.07c-.07,0-.14.02-.2.07-.07.05-1.62,1.25-2.69,3.93-.29.72-.67,1.15-1.02,1.15-.18,0-.35-.12-.45-.32-.13-.25-.11-.55.05-.79.05-.06.08-.13.08-.21,0-.18-.15-.33-.33-.33h0s0,0,0,0c-.01,0-.02,0-.03,0-.05,0-.09.02-.13.04-.48.25-1.24,1-.75,2.08.29.63.88,1,1.58,1,.09,0,.19,0,.29-.02.75-.08,1.47-.58,1.93-1.31.34-.54.55-1,.74-1.41.3-.65.51-1.11,1.09-1.56.37-.29.56-.63.59-1.01.04-.55-.31-.99-.46-1.16,0,0-.04-.04-.04-.05-.06-.06-.15-.09-.23-.09h0Z"/>
                </g>
                <path class="cls-14" d="M57.51,40.55c.29.62.89.88,1.52.79-.33-.01-.94-.13-1.25-.62-.44-.7.01-1.26.01-1.26,0,0-.12,1.18,1.04,1.27,1.16.08,1.4-1.32,2.05-2.71.49-1.06,1.39-2.09,1.84-2.58-.02-.03-.03-.04-.03-.04,0,0-1.54,1.17-2.58,3.79-1.04,2.61-2.8.86-1.98-.29,0,0-1.1.57-.61,1.65Z"/>
              </g>
              <g>
                <g>
                  <path class="cls-45" d="M64.54,40.33c-.92-.05-1.75-.56-2.15-1.33-.43-.83-.71-2.14-.21-3.34.45-1.07,1.41-1.84,2.85-2.27.54-.16,1.13-.25,1.76-.25.77,0,1.61.12,2.5.36,1.9.5,3.43,1.37,3.72,1.54.05.05.13.17.1.24l-1.51,2.58c-.03.05-.08.08-.14.08h0c-.06,0-.11-.03-.14-.08-.01-.02-1.08-1.88-2.73-2.47-.12-.04-.23-.07-.34-.1-.41-.1-.82-.15-1.21-.15-.61,0-1.06.12-1.35.24.58.27,1.33.88,1.66,1.64.3.68.22,1.38-.22,2.02-.48.68-1.16,1.13-1.9,1.25-.16.03-.32.04-.47.04-.07,0-.13,0-.2,0ZM64.12,36.63c-.08.18-.13.39-.14.64,0,.45.15.86.42,1.13.18.19.4.28.63.28.14,0,.28-.04.42-.11.19-.1.25-.29.26-.43.04-.34-.12-.77-.39-1.07-.25-.28-.56-.43-.88-.43-.07,0-.13,0-.2.02,0,0-.02,0-.03,0-.04,0-.07-.01-.1-.03Z"/>
                  <path class="cls-51" d="M66.8,33.31c.83,0,1.67.14,2.45.35,1.89.5,3.42,1.38,3.68,1.53.03,0,.04.02.04.02l-.04.06-.22.37-1.26,2.15s-1.09-1.92-2.82-2.55h0c-.12-.04-.23-.08-.35-.1-.46-.11-.88-.16-1.24-.16-1.16,0-1.79.43-1.79.43.76.11,3,1.74,1.74,3.54-.48.69-1.13,1.07-1.79,1.18-.15.03-.3.04-.45.04-.06,0-.12,0-.18,0-.84-.04-1.63-.5-2.01-1.24-.79-1.51-.92-4.33,2.54-5.37.55-.17,1.13-.24,1.72-.24M64.7,35.7s-.06.05-.1.07c-.27.18-.77.68-.79,1.49,0,.88.55,1.58,1.22,1.58.16,0,.33-.04.5-.13.21-.11.33-.32.35-.56.08-.69-.53-1.69-1.44-1.69-.08,0-.15,0-.23.02,0-.02,0-.32.48-.79M66.8,32.98c-.65,0-1.26.09-1.81.25-1.47.44-2.49,1.26-2.95,2.36-.53,1.26-.23,2.62.22,3.48.43.82,1.31,1.37,2.29,1.42.06,0,.13,0,.2,0,.17,0,.34-.02.51-.05.78-.13,1.49-.59,2-1.31.48-.69.56-1.45.24-2.19-.29-.66-.86-1.2-1.39-1.54.25-.06.56-.11.92-.11s.77.05,1.17.15c.11.02.21.05.31.09.01,0,.03,0,.05.01,1.57.59,2.6,2.37,2.61,2.39.06.1.17.17.29.17h0c.12,0,.23-.06.29-.16l1.26-2.15.22-.37.04-.07c.07-.13.05-.29-.06-.4-.03-.03-.07-.05-.11-.08-.32-.19-1.85-1.05-3.75-1.55-.9-.24-1.76-.36-2.54-.36h0ZM64.22,36.83s.04,0,.06,0c.06-.01.12-.02.17-.02h0c.37,0,.63.23.76.37.24.27.38.65.35.94-.02.15-.07.25-.17.3-.12.06-.23.09-.35.09-.23,0-.41-.13-.52-.23-.24-.24-.37-.61-.37-1.02,0-.16.03-.31.07-.44h0Z"/>
                </g>
                <path class="cls-34" d="M68.63,35.24c1.73.63,2.82,2.55,2.82,2.55l1.26-2.15.22-.37.04-.06s0,0-.04-.02c-.25-.15-1.79-1.03-3.68-1.53.08.21.12.46.1.76-.04.44-.34.68-.72.82Z"/>
                <path class="cls-34" d="M64.56,40.16c.22.02.42,0,.64-.03.66-.11,1.3-.49,1.79-1.18,1.25-1.8-.98-3.43-1.74-3.54-.14.05-.28.12-.41.2-.04.03-.09.05-.12.09-.48.47-.48.78-.48.79,1.03-.19,1.76.92,1.67,1.67.08.12.13.27.13.43,0,.6-.82,1.19-1.46,1.57Z"/>
                <path class="cls-14" d="M62.54,38.92c.49.93,1.59,1.41,2.65,1.21-.83-.09-1.86-.35-2.29-1.06-.8-1.3-1.3-4.35,2.31-5.34,3.15-.86,6.65,1.33,7.49,1.91.13.08.19.13.19.13l.03-.5v-.08c-.43-.25-4.57-2.63-7.85-1.64-3.46,1.04-3.32,3.87-2.54,5.37Z"/>
                <ellipse class="cls-14" cx="66.5" cy="33.6" rx=".91" ry=".32" transform="translate(-.39 .78) rotate(-.67)"/>
                <ellipse class="cls-14" cx="66.44" cy="34.2" rx=".34" ry=".13" transform="translate(-.4 .78) rotate(-.67)"/>
              </g>
            </g>
            <g>
              <path class="cls-47" d="M70.34,66.83c-1.19,0-2.2-.17-3.03-.51-.04.04-.09.07-.15.08,0,0-.12.02-.34.02-1.39,0-6.17-.58-9.34-8.08-1.89-4.47-1.74-9.41.39-13.22,1.58-2.81,4.04-4.66,6.76-5.07.01,0,.02,0,.03,0,.05,0,.09.01.13.04.78-.44,1.8-.82,3.11-.95.32-.03.62-.05.92-.05.17,0,.33,0,.49.01,2.49.11,3.96,1.17,4.44,1.58.48-.43,1.98-1.56,4.59-1.69.16,0,.33-.01.5-.01.24,0,.48,0,.73.03,1.32.1,2.35.44,3.14.87.04-.02.08-.04.13-.04.02,0,.05,0,.08.01,2.72.36,5.21,2.15,6.84,4.93,2.21,3.75,2.47,8.68.69,13.18-3.12,7.89-8.26,8.29-9.26,8.29-.15,0-.24,0-.24,0-.06,0-.11-.03-.15-.08-.8.35-1.77.54-2.89.57-.14,0-.29,0-.43,0-1.67,0-3.12-.31-3.43-.38-.33.08-1.92.47-3.71.47Z"/>
              <path class="cls-48" d="M78.84,39.21c.23,0,.47,0,.71.03,3.64.27,5.03,2.52,5.19,2.81-.61-1.42-1.75-1.92-1.89-1.97h0s0,0-.02,0h0,0s.02,0,.03,0c6.15.81,10.78,9.11,7.35,17.79-3.05,7.71-7.96,8.15-9.04,8.15-.14,0-.21,0-.21,0l.41-.42c-.99.64-2.26.88-3.48.91-.14,0-.28,0-.42,0-1.84,0-3.43-.39-3.43-.39,0,0-1.75.48-3.71.48-1.25,0-2.59-.19-3.62-.83l.42.41s-.11.01-.31.01c-1.26,0-5.99-.52-9.13-7.93-3.64-8.61.81-17.04,6.97-17.96,0,0-1.25.49-1.86,2.02.15-.29,1.48-2.57,5.12-2.93.31-.03.61-.05.9-.05.16,0,.32,0,.47.01,2.97.14,4.46,1.66,4.46,1.66,0,0,1.5-1.62,4.6-1.78.16,0,.32-.01.49-.01M64.66,40.28h0M78.84,38.75c-.18,0-.35,0-.52.02-2.44.12-3.95,1.11-4.58,1.62-.62-.48-2.1-1.4-4.43-1.51-.16,0-.33-.01-.49-.01-.32,0-.64.02-.95.05-1.3.13-2.32.48-3.11.92-.03,0-.06-.01-.1-.01h0s-.02,0-.03,0c-.02,0-.03,0-.05,0-2.79.42-5.31,2.31-6.92,5.18-2.17,3.87-2.32,8.89-.4,13.42,3.22,7.62,8.13,8.22,9.56,8.22.24,0,.37-.02.37-.02.05,0,.11-.02.15-.05.83.32,1.83.48,2.99.48,1.73,0,3.28-.36,3.71-.46.41.09,1.81.38,3.42.38.14,0,.29,0,.44,0,1.09-.03,2.05-.21,2.85-.54.05.02.1.04.15.04,0,0,.09,0,.26,0,1.02,0,6.3-.41,9.47-8.44,1.8-4.56,1.54-9.56-.7-13.38-1.66-2.83-4.21-4.66-6.99-5.04-.04-.01-.08-.02-.12-.02s-.08,0-.12.01c-.8-.41-1.83-.75-3.13-.84-.26-.02-.51-.03-.75-.03h0Z"/>
            </g>
            <path class="cls-19" d="M83.08,58.29s3.37-8.74.74-14.02c-2.63-5.28-4.82-3.9-7.88-1.77s-5.88-.85-6.53-1.88-5.08-.92-6.29,4.03c-1.21,4.95.12,10.16.12,10.16"/>
            <path class="cls-17" d="M69.3,39.34c.82,1.34,2.44,3.57,4.16,3.45,2.46-.17,4.89-3.56,4.89-3.56-3.09.15-4.6,1.78-4.6,1.78,0,0-1.49-1.52-4.46-1.66Z"/>
            <path class="cls-17" d="M81.37,65.59l-.41.42s5.81.56,9.25-8.14c3.44-8.69-1.22-17.02-7.39-17.8,0,0,1.26.46,1.91,1.98-.16-.29-1.54-2.54-5.19-2.81-.42-.03-.83-.04-1.2-.01,2.07.23,4.75,1.08,6.04,3.87,2.29,4.91,1.05,14.55-2.38,19.61-1.14,1.68-2.63,2.91-4.11,3.79,1.22-.03,2.49-.27,3.48-.91Z"/>
            <path class="cls-31" d="M82.85,40.08h.02s-.03,0-.04,0c0,0,0,0,.02,0Z"/>
            <path class="cls-14" d="M80.97,66.01s5.81.56,9.25-8.14c3.43-8.67-1.2-16.98-7.35-17.79.96.27,6.14,1.98,7.59,9.03,1.61,7.76-3.75,16.05-9.49,16.9Z"/>
            <path class="cls-17" d="M57.69,58.25c3.45,8.17,8.84,7.96,9.4,7.92h.04s-.42-.41-.42-.41c1,.62,2.28.82,3.5.83-1.51-.84-3.03-2.04-4.2-3.69-3.55-4.98-5.01-14.59-2.84-19.55,1.23-2.82,3.88-3.74,5.95-4.01-.38-.01-.78,0-1.2.04-3.64.36-4.97,2.64-5.12,2.93.61-1.53,1.86-2.02,1.86-2.02-.63.1-1.23.27-1.81.51h0c-5.16,2.14-8.42,9.73-5.15,17.46Z"/>
            <path class="cls-14" d="M57.69,58.25c3.45,8.17,8.84,7.96,9.4,7.92-.29,0-2.13-.07-4.95-2.32-3.09-2.46-6.12-9.64-4.36-16.73,1.16-4.66,3.51-5.55,5.05-6.33-5.16,2.13-8.42,9.73-5.15,17.45Z"/>
            <ellipse class="cls-14" cx="57.2" cy="50.89" rx=".68" ry="1.66" transform="translate(-.59 .68) rotate(-.67)"/>
            <ellipse class="cls-14" cx="58.49" cy="50.94" rx=".33" ry=".72" transform="translate(-.59 .69) rotate(-.67)"/>
            <path class="cls-38" d="M81.54,39.29c6.31,2.63,5.37,11.04,4.21,16.53,1-5.35,1.83-13.65-4.3-16.14-.28-.04-.18-.48.09-.4h0Z"/>
            <path class="cls-38" d="M65.87,39.86c-6.07,2.64-5.04,10.9-3.92,16.23-1.13-5-2.18-11.37,1.8-15.38.58-.54,1.23-.98,2.01-1.25.11-.04.22.02.26.13.04.12-.04.24-.16.27h0Z"/>
            <g>
              <g>
                <path class="cls-41" d="M72.93,40.83s-.09-.02-.12-.06-.04-.08-.04-.13c.02-.15.04-.32.04-.49-.03.04-.07.07-.12.08,0,0-.07,0-.18,0-.27,0-.66-.05-.92-.28-.15-.12-.32-.35-.29-.76.06-.8-.18-1.48-.44-2.21l-.16-.46c-.32-.92-.27-2.96.96-3.57.29-.15.59-.22.9-.22.6,0,1.05.29,1.19.4.17,0,.31.03.44.06.73.2,1.34.79,1.37.81.02.02.03.04.04.06.45.07.86.32,1.08.56.24.25.22.44.16.54-.1.17-.29.17-.36.17-.19.03-.38.05-.49.68-.18,1.07.61,3.41.62,3.43.02.07,0,.14-.06.19l-.86.65s-.06.03-.1.03c-.03,0-.07,0-.1-.03-.05-.03-.18-.16-.41-.64.05.41-.04.63-.51.87-.57.29-1.36.32-1.58.32,0,0-.05,0-.05,0Z"/>
                <path class="cls-51" d="M72.56,32.89c.67,0,1.13.4,1.13.4,0,0,.02,0,.02,0,.14,0,.29.02.43.06.7.19,1.3.77,1.3.77-.25.01-.45.14-.6.29-.23.23-.35.53-.39.64.07-.12.31-.51.63-.71.12-.08.26-.13.4-.13.01,0,.02,0,.03,0,.39.03.82.28,1.04.52.13.13.19.26.14.35-.04.07-.12.09-.21.09-.21.03-.51.04-.65.81-.19,1.12.62,3.52.62,3.52l-.86.65s-.23-.16-.66-1.3c-.35-.91-.39-1.51-.4-1.71-.02.17-.01.63.18,1.52.25,1.19.41,1.39-.21,1.71-.54.28-1.31.3-1.51.3-.03,0-.05,0-.05,0,.17-1.05-.22-2.75-.34-3.24.25,1.09.08,2.63.08,2.63,0,0-.06,0-.16,0-.21,0-.58-.03-.81-.24-.15-.12-.25-.32-.23-.62.08-1-.31-1.84-.61-2.74-.31-.89-.22-2.82.87-3.37.3-.15.58-.2.83-.2M72.56,32.56c-.33,0-.66.08-.97.24-1.31.66-1.37,2.81-1.04,3.78.05.15.1.31.16.46.25.71.49,1.38.43,2.14-.04.49.17.76.35.91.29.26.72.31,1.02.31.05,0,.09,0,.12,0,0,.08-.01.15-.03.22-.02.09.01.19.07.26s.15.12.25.12c0,0,.05,0,.06,0,.24,0,1.06-.02,1.66-.33.29-.15.46-.3.54-.48.09.14.16.2.21.24.06.04.12.06.19.06.07,0,.14-.02.2-.07l.86-.65c.12-.09.16-.24.12-.37-.22-.64-.76-2.5-.61-3.35.09-.5.21-.52.35-.54.21,0,.38-.09.48-.25.08-.13.15-.4-.18-.75-.22-.24-.64-.51-1.09-.6,0,0-.01-.02-.02-.02-.03-.03-.67-.65-1.45-.86-.13-.04-.27-.06-.42-.07-.2-.14-.65-.4-1.24-.4h0Z"/>
              </g>
              <path class="cls-34" d="M70.86,36.46c.3.89.68,1.73.61,2.74-.08,1,1.2.86,1.2.86,0,0,.18-1.61-.09-2.71.09.38.54,2.21.36,3.31,0,0,.93.02,1.56-.3.62-.31.46-.52.21-1.71-.19-.89-.2-1.35-.18-1.52,0,.2.05.8.4,1.71.43,1.14.66,1.3.66,1.3l.86-.65s-.82-2.39-.62-3.52c.2-1.11.74-.65.87-.91.05-.09-.01-.21-.14-.35-.15-.03-.36-.02-.61.05-.76.22-.85,1.93-.61,2.84.23.92-.6.29-.63-.72-.03-1-.42-1.38-.41-.15s-.37,1-.5.15c-.13-.84-.49-.93-.49-.14,0,.8-.88-.52-.6-1.97.2-1.05,1.01-1.37,1.44-1.45-.14-.04-.3-.06-.45-.06,0,0-.86-.74-1.96-.19-1.1.55-1.18,2.48-.87,3.37Z"/>
              <path class="cls-14" d="M75.1,35.65c-.1.9.21,1.91.21,1.91,0,0-.09-.82-.02-1.56.07-.74.56-1.14.98-1.13.37,0,.24.25.2.3.1,0,.17-.02.21-.09.05-.09-.01-.21-.14-.35-.22-.24-.65-.49-1.04-.52-.15,0-.3.04-.43.13.08-.03.19-.04.29-.02.26.04.24.31.24.31,0,0-.41.12-.51,1.02Z"/>
              <path class="cls-14" d="M70.86,36.46c.3.89.68,1.73.61,2.74-.02.31.08.5.23.62.02-.32.03-.84,0-1.52-.08-1.23-.69-1.15-.69-2.6,0-1.45.98-2.55,1.77-2.44.7.09.49.47.43.57.08-.05.47-.27,1.04-.1.53.16.6.55.61.68.15-.15.35-.28.6-.29,0,0-.6-.58-1.3-.77-.14-.04-.3-.06-.45-.06,0,0-.86-.74-1.96-.19-1.1.55-1.18,2.48-.87,3.37Z"/>
            </g>
            <g>
              <path class="cls-50" d="M77.14,50.94c.02,2.11,1.38,3.9,3.27,4.57,0,0,.01,0,.02,0,.46.16.96.26,1.47.27.06,0,.13,0,.19,0,2.71-.03,4.88-2.25,4.85-4.96-.02-1.61-.82-3.03-2.04-3.91h0c-.64-.46-1.38-.77-2.2-.88l-5.19,4.44-.37.32s0,.1,0,.15Z"/>
              <path class="cls-49" d="M77.51,50.48v.05c.03,2.32,1.23,4.27,2.9,4.98,0,0,.01,0,.02,0,.44.19.91.28,1.39.27.03,0,.05,0,.08,0,2.31-.08,4.14-2.46,4.1-5.36-.02-1.35-.43-2.58-1.1-3.51h0c-.64-.46-1.38-.77-2.2-.88l-5.19,4.44Z"/>
            </g>
            <g>
              <path class="cls-50" d="M70.75,51.02c.02,2.11-1.29,3.93-3.16,4.64,0,0-.01,0-.02,0-.46.17-.95.28-1.47.3-.06,0-.13,0-.19,0-2.71.03-4.93-2.14-4.96-4.85-.02-1.61.75-3.05,1.94-3.96h0c.62-.47,1.37-.8,2.18-.93l5.29,4.32.38.31s0,.1,0,.15Z"/>
              <path class="cls-49" d="M70.37,50.56v.05c.03,2.32-1.13,4.3-2.78,5.05,0,0-.01,0-.02,0-.43.2-.9.3-1.38.31-.03,0-.05,0-.08,0-2.31-.02-4.19-2.36-4.23-5.26-.02-1.35.37-2.59,1.02-3.53h0c.62-.47,1.37-.8,2.18-.93l5.29,4.32Z"/>
            </g>
            <path class="cls-49" d="M74,53.8l.94,1.27c.1.14,0,.34-.17.34l-1.85.02c-.17,0-.28-.19-.18-.34l.91-1.29c.08-.12.26-.12.34,0Z"/>
            <ellipse class="cls-14" cx="89.75" cy="47.38" rx=".88" ry="1.67" transform="translate(-7.03 16.83) rotate(-10.31)"/>
            <ellipse class="cls-14" cx="88.26" cy="47.7" rx=".39" ry=".87" transform="translate(-7.11 16.57) rotate(-10.31)"/>
            <g>
              <polygon class="cls-50" points="65.07 56.55 68.04 61.05 69.04 60.08 71.71 61.22 71.55 60.36 73.8 61.43 76.03 60.31 75.88 61.17 78.53 59.97 79.55 60.92 82.42 56.35 81.66 56.62 79.05 57.53 79.02 56.21 75.91 57.76 73.74 56.16 71.6 57.82 68.47 56.33 68.46 57.65 65.84 56.8 65.07 56.55"/>
              <polygon class="cls-49" points="65.84 56.8 68.03 60.13 69.03 59.16 71.7 60.29 71.54 59.43 73.79 60.51 76.02 59.38 75.87 60.24 78.52 59.05 79.54 59.99 81.66 56.62 79.05 57.53 79.02 56.21 75.91 57.76 73.74 56.16 71.6 57.82 68.47 56.33 68.46 57.65 65.84 56.8"/>
              <path class="cls-43" d="M77.51,50.48v.05c.03,2.32,1.23,4.27,2.9,4.98,0,0,.01,0,.02,0,.44.19.91.28,1.39.27.03,0,.05,0,.08,0,2.31-.08,4.14-2.46,4.1-5.36-.02-1.35-.43-2.58-1.1-3.51h0c-.64-.46-1.38-.77-2.2-.88l-5.19,4.44Z"/>
              <path class="cls-42" d="M70.37,50.56v.05c.03,2.32-1.13,4.3-2.78,5.05,0,0-.01,0-.02,0-.43.2-.9.3-1.38.31-.03,0-.05,0-.08,0-2.31-.02-4.19-2.36-4.23-5.26-.02-1.35.37-2.59,1.02-3.53h0c.62-.47,1.37-.8,2.18-.93l5.29,4.32Z"/>
              <path class="cls-46" d="M74,53.8l.94,1.27c.1.14,0,.34-.17.34l-1.85.02c-.17,0-.28-.19-.18-.34l.91-1.29c.08-.12.26-.12.34,0Z"/>
              <polygon class="cls-40" points="65.84 56.8 68.03 60.13 69.03 59.16 71.7 60.29 71.54 59.43 73.79 60.51 76.02 59.38 75.87 60.24 78.52 59.05 79.54 59.99 81.66 56.62 79.05 57.53 79.02 56.21 75.91 57.76 73.74 56.16 71.6 57.82 68.47 56.33 68.46 57.65 65.84 56.8"/>
            </g>
          </g>
        </g>
      </g>
    </g>
  </g>
</svg>