<?xml version="1.0" encoding="UTF-8"?>
<svg xmlns="http://www.w3.org/2000/svg" xmlns:xlink="http://www.w3.org/1999/xlink" viewBox="0 0 69.57 57.68">
  <defs>
    <style>
      .cls-1 {
        fill: url(#linear-gradient-3);
      }

      .cls-2 {
        fill: url(#linear-gradient-2);
      }

      .cls-3 {
        fill: url(#linear-gradient);
      }

      .cls-4 {
        fill: #623a9c;
      }

      .cls-5 {
        isolation: isolate;
      }

      .cls-6 {
        mix-blend-mode: overlay;
        opacity: .48;
      }

      .cls-7 {
        fill: #501372;
      }
    </style>
    <linearGradient id="linear-gradient" x1="3736.29" y1="19.7" x2="3690.41" y2="74.42" gradientTransform="translate(3737.37) rotate(-180) scale(1 -1)" gradientUnits="userSpaceOnUse">
      <stop offset=".46" stop-color="#edd6ff"/>
      <stop offset=".74" stop-color="#f2bbff"/>
      <stop offset="1" stop-color="#f6a8ff"/>
    </linearGradient>
    <linearGradient id="linear-gradient-2" x1="3720.14" y1="6.49" x2="3676.11" y2="59.01" xlink:href="#linear-gradient"/>
    <linearGradient id="linear-gradient-3" x1="3708.05" y1="-2.85" x2="3664.96" y2="48.54" xlink:href="#linear-gradient"/>
  </defs>
  <g class="cls-5">
    <g id="Layer_2" data-name="Layer 2">
      <g id="Layer_1-2" data-name="Layer 1">
        <g>
          <g>
            <path class="cls-3" d="M16.71,39.65s-.09,0-.13-.01C4.15,37.17,1.48,30.99.9,28.44c-.58-2.57.08-5.15,1.6-6.28.45-.37,1.01-.58,1.57-.58s1.12.2,1.62.58c4.15,3.06,9.87,4.43,9.93,4.44.29.07.5.31.53.6l.94,8.94.31,2.75c.02.22-.06.44-.22.58-.13.12-.3.18-.47.18Z"/>
            <path class="cls-4" d="M4.08,22.28c.4,0,.81.14,1.21.44,4.33,3.18,10.19,4.56,10.19,4.56l.94,8.94.31,2.75C-.22,35.6-.07,24.93,2.91,22.71c.35-.29.75-.44,1.16-.44M4.08,20.9c-.72,0-1.41.25-2.01.73-1.74,1.32-2.48,4.11-1.84,6.97,1.81,8.03,11.94,10.87,16.22,11.72.09.02.18.03.27.03.34,0,.68-.13.93-.36.32-.3.49-.73.44-1.17l-.31-2.75-.94-8.93c-.06-.58-.49-1.06-1.06-1.2-.06-.01-5.64-1.36-9.68-4.33-.61-.46-1.32-.71-2.02-.71h0Z"/>
          </g>
          <path class="cls-6" d="M16.71,38.96l-.31-2.75c-1.73-1.2-4.56-2.78-7.61-4.74-5.25-3.36-5.45-8.48-5.45-8.48l-.43-.28C-.07,24.93-.22,35.6,16.71,38.96Z"/>
          <g>
            <path class="cls-2" d="M44.68,56.99c-3.92,0-10.28-.96-18.25-5.56-8.95-5.16-15.24-13.1-17.71-22.37,0-.03-.01-.06-.02-.09-2.18-8.23-1.06-16.77,2.94-22.31C14.25,3.03,17.81.99,21.94.74c.55-.03,1.09-.05,1.62-.05,11.38,0,15.82,7.56,19.74,14.23,1.93,3.29,3.76,6.39,6.25,8.54.8.67,1.53,1.22,2.22,1.68,4.42,2.93,8.85,3.55,11.79,3.55,1.57,0,2.56-.19,2.57-.19.12-.01.18-.02.23-.02,1.17,0,2.29,1.15,2.48,2.57.16,1.18-.38,2.65-2.4,3.22-3.02.85-5.35,4.74-5.37,4.78-.06.1-.13.17-.22.23,1.65,1.31,2.53,3.23,2.13,4.88-.26,1.1-1.31,2.98-5.36,3.12-2.44.09-2.88.57-2.96.72-.17.33.33,1.13.66,1.67.35.56.68,1.1.72,1.61.06.77-.29,1.59-1.01,2.36-1.5,1.62-5.01,3.34-10.37,3.34h0Z"/>
            <path class="cls-4" d="M23.56,1.38c16.35,0,17.67,15.84,25.54,22.61.76.64,1.53,1.22,2.29,1.73,4.66,3.09,9.34,3.66,12.17,3.66,1.67,0,2.7-.2,2.7-.2.03,0,.07,0,.1,0,1.62,0,3.17,3.51-.1,4.44-3.34.94-5.78,5.09-5.78,5.09-3.64-.87-5.12-4.61-5.12-4.61,0,0,.59,3.16,4.18,5.14,3.62,1.99,4.61,7.13-1.94,7.36-6.54.23-2.34,3.36-2.24,4.74.15,2.03-3.84,4.96-10.69,4.96-4.74,0-10.85-1.4-17.91-5.47-9.73-5.6-15.23-13.83-17.39-21.95v-.03C5.77,15.33,11.34,2.06,21.99,1.43c.54-.03,1.06-.05,1.57-.05M23.56,0c-.54,0-1.1.02-1.65.05-4.35.26-8.09,2.4-10.83,6.19-4.11,5.7-5.28,14.45-3.05,22.87,0,.04.02.08.03.12,2.52,9.45,8.92,17.54,18.04,22.79,8.11,4.68,14.59,5.66,18.6,5.66,5.58,0,9.28-1.84,10.87-3.56.85-.92,1.26-1.91,1.19-2.88-.05-.69-.43-1.29-.82-1.93-.16-.26-.44-.7-.55-.98.25-.11.87-.3,2.28-.35,4.68-.16,5.76-2.61,6.01-3.65.41-1.73-.34-3.68-1.86-5.13.73-1.15,2.69-3.65,4.84-4.26,2.45-.69,3.09-2.58,2.89-3.98-.24-1.74-1.66-3.16-3.17-3.16-.08,0-.15,0-.23.01-.05,0-.09.01-.14.02,0,0-.94.17-2.44.17-2.84,0-7.13-.6-11.41-3.43-.68-.45-1.39-.99-2.17-1.64-2.4-2.06-4.19-5.12-6.09-8.35C39.88,7.74,35.33,0,23.56,0h0Z"/>
          </g>
          <path class="cls-6" d="M9.38,28.88c2.16,8.12,7.66,16.35,17.39,21.95,17.26,9.96,28.85,3.95,28.6.51-.1-1.37-4.3-4.51,2.24-4.74,6.54-.23,5.55-5.37,1.94-7.36-3.59-1.99-4.18-5.14-4.18-5.14,0,0,1.48,3.74,5.12,4.61,0,0,2.44-4.15,5.78-5.09,3.34-.94,1.66-4.58,0-4.43,0,0-7.46,1.45-14.87-3.46,1.07,1.5,2.39,2.95,4.02,4,5.14,3.36-.25,4.56-2.19,3.59-1.96-.97-1.53,4.43-.38,7.13,1.15,2.67-6.24,1.4-4.74,5.63,1.5,4.23-12.07,6.47-23.5-1.35-11.05-7.59-14.97-15.33-15.23-15.84Z"/>
          <g>
            <path class="cls-1" d="M38.38,20.22s4.06-4.42,5.85-9.5c1.79-5.08,14.39-.5,3.57,14.61"/>
            <path class="cls-4" d="M38.38,20.22c1.74-2.38,3.25-4.91,4.44-7.53.52-1.06.69-2.15,1.34-3.16,1.36-1.88,4.19-1.78,5.88-.61,5.63,4.29,1.41,12.28-2.24,16.4,2.37-4.27,6.27-11.47,1.48-15.25-1.03-.71-2.46-.91-3.47-.33-1.18.64-1.32,2.34-2.03,3.41-1.4,2.66-3.26,5.03-5.4,7.07h0Z"/>
          </g>
          <path class="cls-7" d="M19.56,22.89l-6.9-4.48s-1.31,4.61,2.24,6.18c3.55,1.58,4.66-1.7,4.66-1.7Z"/>
          <path class="cls-7" d="M26.52,22.33l7.74-4.75s1.15,4.72-2.33,6.44c-3.48,1.71-5.41-1.69-5.41-1.69Z"/>
          <path class="cls-7" d="M20.5,28.18s5.24-.32,8.22-2.08c0,0-.29,2.32-2.03,2.69-1.74.37-4.63.07-6.19-.61Z"/>
        </g>
      </g>
    </g>
  </g>
</svg>