<?xml version="1.0" encoding="UTF-8"?>
<svg id="Layer_2" data-name="Layer 2" xmlns="http://www.w3.org/2000/svg" xmlns:xlink="http://www.w3.org/1999/xlink" viewBox="0 0 63.97 118.46">
  <defs>
    <style>
      .cls-1 {
        fill: url(#linear-gradient);
      }
    </style>
    <linearGradient id="linear-gradient" x1="32.16" y1="-32.84" x2="31.77" y2="127.01" gradientUnits="userSpaceOnUse">
      <stop offset="0" stop-color="#000012"/>
      <stop offset=".21" stop-color="#241d54"/>
      <stop offset=".27" stop-color="#211b4f"/>
      <stop offset=".33" stop-color="#1b1543"/>
      <stop offset=".39" stop-color="#100c2f"/>
      <stop offset=".45" stop-color="#000013"/>
      <stop offset=".46" stop-color="#000012"/>
      <stop offset=".78" stop-color="#241d54"/>
      <stop offset=".84" stop-color="#211b4f"/>
      <stop offset=".89" stop-color="#1b1543"/>
      <stop offset=".94" stop-color="#100c2f"/>
      <stop offset="1" stop-color="#000013"/>
      <stop offset="1" stop-color="#000012"/>
    </linearGradient>
  </defs>
  <g id="Layer_1-2" data-name="Layer 1">
    <path class="cls-1" d="M51.63,41.15c.29.76,2.06-.28,2.71-.12.64.16,1.35.48,1.71,1.14-.63-.26-.92-.34-1.71-.37-.79-.01-2.22.45-3.1.35-.85-.12-1.16-.61-1.01-1.38-.91-.37-1.27-.44-2.38-.69-1.11-.23-2.46-1.93-3.75-1.97-1.29-.04-2.25,2.37-3.98,3.03-1.71.64-4.97-.07-6.63-.23-1.64-.18-1.59.73-2.05,1.74-.45,1.01-.35.97-1.32,1.86s-1.8,2.91-2.59,4.29c-.78,1.38-2.81,3.03-3.5,4.24-.69,1.2-1.27,2.09-.88,3.23.41,1.14,2.81.8,2.87,2.14.06,1.32-1.29,1.8-1.84,3.06-.56,1.26-.23,3.17.29,4.81.53,1.62,1.35,5.59,1.27,7.05-.09,1.48-1.08,3.96-.29,4.46.8.48,1.29-1.16,1.64-1.77.37-.63.38-1.84.44-2.76.07-.92.91-1.87,1.24-2.63.35-.78.2-1.38.04-2-.16-.64-.18-.98-.1-1.58.16.67.41,1.29.82,1.84.19-.78.82-1.27,1.23-1.83.41-.56.42-.75.5-1.43.07-.67.13-1.62.25-2.36.07.79.15,1.46.26,2.28.12.82-.19,1.58-.7,2.28-.53.72-1.58,2.33-.79,3.1.79.76,2.05-.34,2.75-.69.7-.37,1.52.44,1.97.64.44.22,2.14-.31,1.73.41-.39.72-1.92,1.11-2.78.86-.88-.25-1.35-.03-2.11.51-.76.53-1.73-.34-2,1.08-.29,1.43.86,2.84-.04,4.73-.89,1.89-3.66,3.06-4.26,5.69-.61,2.65-.79,6.5-1.01,9.45-.22,2.96-1.64,6.74-2.34,9.1-.7,2.37-.15,1.65.19,3.85.34,2.19.18,7.42-.22,10.31-.07.51-.09.99-.04,1.46-6.45.25-11.85.06-15.27-.15.13-.7.25-1.36.35-1.93.86-4.84,4.52-17.36,4.99-21.36.47-4.02,1.42-8.6.64-10.62-.76-2.02-1.68-1.71-2.19-3.34-.5-1.61-1.02-3.35-1.49-4.7-.47-1.35-1.74-.22-2.43.18-.7.4-.94,1.73-1.2,2.4-.26.69-.18,1.68-.03,2.17.15.47.22.82-.09.94-.32.12-.45-.19-.72.29-.28.5-.72,1.48-1.13,2.03-.18.22-.22.51-.15.76-.22-.47-.48-1.2-.06-1.61.89-.89.51-1.67.1-2.44-.41-.78,1.01-1.89.03-1.39-.98.51-.57,2.87-.89,3.67-.31.8-.51,1.07-.99,1.57.07-.97.83-2.11.69-3.12-.01-.45-.31-.66-.75-1.58-.44-.94.12-2.09,1.24-3.17,1.08-1.05,1.45-2.17,1.48-2.24.51-.94.91-2.18,1.36-2.72.67-.82,2.02.07,2.05-1.17.03-1.26-2.02-2.75-2.88-3.38-.86-.63-.64-1.51-1.49-1.89-.38-.16-.44.31-1.1.25-.64-.06-.64-.03-1.32-.56,1.07.51.66.06,1.84-.16.42-.09.61-.79,1.13-.64.88.28,1.57,1.18,2.59,1.4,1.02.22,1.62-.22,2.56.34.95.56.26,2.05.37,3.12.1,1.07.6,2.47,1.68,2.96,1.08.48,2.3,2.55,2.56,3.01s.45,4.93.95,3c.5-1.95.4-9.13-.13-11.72-.53-2.59-1.08-3.77-3.17-4.96-2.11-1.18-4.45-1.8-5.25-4.52-.79-2.72-.41-7.08-1.55-9.61-1.13-2.53-2.27-3.58-4.45-4.74,1.43.41,2.79.91,3.86,1.96,1.08,1.05,1.29,2.11,1.74,3.5.35,1.1.64,1.68.63,3.04s.42,3.53,1.54,4.59c1.11,1.07,3.47,1.97,4.53,1.38,1.05-.59,1.57,1.01,1.96-.13.4-1.16.88-4.51.88-6.32s-.79-3.61-1.8-5.09c-.99-1.49-1.17-3.07-1.9-4.52-.72-1.43-2.3-1.59-3.42-2.88-1.13-1.27-.72-3.96-1.7-4.48-.98-.5-1.7-.37-2.63-.6-.92-.25-1.73-.53-2.57-.97.86.07,1.38.13,2.33.16.95.01,1.46-.66,2.6-.83,1.13-.18.88.54,1.19,1.54.31,1.01.45,2.34,1.62,2.47,1.17.15,1.32.44,2.11,1.16.79.73,2.17,1.13,2.47-.54.32-1.68-.69-4.21-1.65-5.75-.98-1.54-1.89-3.09-2.12-4.8-.22-1.7-.61-3.95-1.54-5.06-.92-1.1-1.32-.61-2.52-.73-1.21-.13-2.02-1.36-2.28-2.37-.26-1.02-.41-1.39-.94-2.09,1.46.23,2.4,1.73,3.41,2.56.99.85,1.65-.2,2.46-.07.83.12,1.43.5,1.81-.23.4-.75.64-1.01,1.24-1.78.6-.79.56-2.6.32-3.51-.25-.91-.03-1.26.07-2.03.01.89.22,1.77.48,2.59.26.83.38,1.61.2,2.46.23-.07.47-.07.69-.18-.67,1.01-1.26.89-1.65,2.37-.39,1.51-.29,4.78.25,6.45.54,1.65,1.23,2.72,2.24,4.04.35-.69.18-.44.44-1.4.26-.97,1.42-2.46,1.8-3.77.37-1.33-.86-1.78.01-3.58.88-1.81,5.43-4.08,6.98-5.46,1.54-1.38,1.16-2.52,1.38-4.21.2-1.7,1.4-2.95,2.72-4.02,1.3-1.05,2.63-2.75,3.41-3.89.78-1.16,1.05-1.11,2.08-1.64-1.02.88-1.2,1.23-1.96,2.57-.78,1.36-2.43,2.91-3.69,4.3-1.26,1.39-.15,3.22,1.45,3.53,1.59.31,2.15,1.17,3.06,1.97.91.79,1.86-.18,2.59-.48.73-.29,1.33-.56,2.14-.48-.75.35-1.11.42-1.9.94-.8.53-1.67,1.36-2.84,1.32-1.17-.03-.94-1.05-1.76-1.36-.82-.31-1.8.5-2.52,1.11s-.89,1.9-1.7,2.78c-.82.89-2.71,2.15-3.32,3.2-.61,1.05-.85.98-1.76,1.65-.92.67-.86,2.52-.89,3.69-.01,1.17-.37,2.44-.66,3.64-.28,1.2.45,1.64.73,2.84.26,1.2-.22,2.19-.73,3.31-.51,1.11-.09,1.76.15,3.2.23,1.46,1.33,6.01,2.3,7.05.97,1.02,1.46.92,2.18.34.72-.59.73-1.65,1.26-2.55.54-.91.92-.26,1.96-.97,1.05-.7.97-3.7,2.24-4.84,1.29-1.16,2.96-.37,4.55.34,1.59.72,4.08,1.49,5.88.53,1.78-.95,2.18-3.79,3.34-5.4,1.16-1.61,3.83-1.99,5.32-2.31,1.49-.32,1.24-1.08,1.9-1.9.66-.83,1.35-1.01,2.37-1.13-.95.64-1.17.64-1.89,1.89-.7,1.26-2.74,2.72-4.17,3.47s-2.76,1.78-3.09,3.38c1.61-.22,2.66.89,3.54,1.86.89.98,1.95,1.96,2.98,2.11,1.02.16,1.23-.56,2.03-.89.79-.34,1.38-.44,2.38-.53,1.01-.07,1.33-.63,2.14-1.57.82-.94,2.25-1.43,3.6-1.62,1.35-.19,2.68-.47,4.02-.67-1.48.59-3.03,1.13-4.55,1.67-1.52.54-3.6,2.57-4.65,3.1-1.05.51-3.42,1.32-3.15,2.08Z"/>
  </g>
</svg>